<!--?xml version="1.0" standalone="no"?-->

<svg version="1.0" xmlns="http://www.w3.org/2000/svg" width="100%" height="100%" viewBox="0 0 2000.000000 2000.000000" preserveAspectRatio="xMidYMid meet">
<metadata>
Created by potrace 1.16, written by Peter Selinger 2001-2019
</metadata>
<g transform="translate(0.000000,2000.000000) scale(0.100000,-0.100000)" fill="#000000" stroke="none">
<path d="M11560 19586 c0 -2 44 -21 98 -41 376 -145 746 -330 1057 -528 112
-71 369 -257 363 -263 -2 -1 -69 30 -148 70 -373 186 -833 297 -1380 331
l-105 7 150 -75 c463 -231 762 -535 929 -947 39 -96 32 -94 -29 9 -249 422
-683 712 -1285 860 -278 68 -589 103 -874 99 l-180 -3 90 -35 c49 -19 143 -61
209 -95 121 -60 331 -192 323 -201 -3 -2 -50 3 -104 13 -145 25 -622 25 -784
0 -345 -54 -657 -148 -1266 -380 -525 -201 -670 -240 -899 -241 -148 -1 -229
16 -330 66 -103 52 -218 173 -278 293 -27 56 -59 178 -78 300 l-13 80 -17 -40
c-16 -36 -16 -41 -2 -57 11 -12 14 -27 9 -49 -7 -37 15 -148 49 -249 14 -40
23 -75 21 -78 -9 -8 -46 62 -68 128 -13 38 -24 104 -28 160 -6 92 -6 94 -17
55 -22 -73 -36 -219 -30 -305 14 -205 128 -425 332 -639 149 -156 382 -333
517 -391 32 -14 58 -29 58 -33 0 -14 -161 4 -259 29 -52 13 -96 22 -98 20 -2
-2 60 -90 140 -195 79 -105 149 -202 157 -215 12 -23 9 -29 -47 -98 -173 -211
-402 -543 -570 -823 -82 -136 -241 -430 -288 -530 -10 -22 -43 -92 -73 -155
-246 -521 -393 -1021 -457 -1560 -22 -181 -31 -625 -16 -810 11 -132 34 -341
121 -1055 37 -304 105 -826 166 -1270 51 -373 51 -327 -2 -730 -68 -511 -173
-1092 -263 -1450 -132 -521 -343 -983 -596 -1300 -94 -118 -307 -346 -585
-628 -210 -213 -269 -267 -285 -264 -11 3 -60 20 -110 37 -76 28 -99 32 -155
28 -155 -11 -234 -97 -351 -383 -23 -55 -50 -110 -61 -122 -11 -12 -61 -45
-110 -73 -179 -104 -238 -154 -686 -583 -220 -211 -309 -303 -300 -308 8 -4
64 -19 124 -33 274 -63 699 -204 1034 -343 857 -356 1658 -847 2404 -1473 460
-385 932 -850 1350 -1328 132 -151 174 -193 208 -206 46 -19 187 -50 194 -43
6 5 -203 293 -348 480 -369 474 -702 850 -1128 1276 -113 113 -185 188 -160
167 148 -125 530 -490 697 -665 370 -389 595 -656 935 -1111 l145 -196 98 -17
c54 -10 99 -16 101 -14 4 3 -169 257 -284 417 -141 195 -360 474 -452 575 -50
55 -96 109 -102 120 l-10 20 19 -20 c212 -218 578 -655 822 -980 68 -90 125
-157 144 -167 34 -18 170 -52 187 -46 25 8 -295 479 -479 703 -167 205 -402
453 -603 636 -54 49 -94 89 -90 89 19 0 309 -265 497 -454 297 -298 496 -534
716 -847 62 -89 122 -165 133 -170 12 -5 46 -15 76 -23 30 -9 66 -18 79 -22
21 -6 23 -5 17 12 -16 45 -200 337 -298 475 -169 236 -306 397 -538 631 -231
232 -236 242 -34 67 254 -221 524 -508 747 -795 98 -126 249 -335 285 -396 22
-35 28 -38 129 -62 59 -14 109 -24 111 -21 10 10 -192 346 -311 515 -114 163
-223 303 -365 470 l-124 145 194 -195 c270 -273 489 -543 691 -854 l88 -135
52 -10 c29 -6 70 -13 91 -17 l39 -7 -20 34 c-11 19 -52 86 -90 149 -148 245
-345 534 -530 779 -52 68 -93 125 -91 126 4 4 156 -174 323 -380 123 -151 376
-485 507 -668 25 -36 57 -72 70 -80 26 -16 98 -30 98 -18 0 11 -132 211 -211
320 -75 103 -104 141 -187 245 -29 36 -51 66 -49 66 3 0 260 -259 526 -532
l153 -156 111 -31 c61 -17 112 -29 115 -27 12 13 -439 619 -752 1011 -655 820
-1430 1658 -2121 2295 -778 717 -1592 1315 -2375 1744 -108 60 -449 230 -559
280 l-83 37 74 77 c504 525 602 631 703 757 150 188 248 346 365 587 123 255
205 490 296 848 76 300 239 1130 300 1529 3 18 7 31 10 29 4 -4 62 -699 65
-768 0 -23 1 -23 9 -5 5 11 9 188 9 393 1 204 5 372 9 372 4 0 14 -111 21
-247 7 -136 19 -322 26 -413 8 -91 15 -199 16 -240 2 -81 13 126 25 465 4 116
8 206 10 200 2 -5 24 -174 49 -375 25 -201 46 -368 48 -373 1 -4 1 163 0 370
-1 272 1 351 7 283 5 -52 23 -182 41 -288 17 -107 39 -260 50 -340 l18 -147
-5 195 c-3 107 -9 248 -14 313 -5 65 -5 128 -1 139 4 12 27 -122 60 -354 30
-205 56 -375 59 -378 5 -6 -5 225 -18 415 -5 72 -12 186 -14 255 l-5 125 28
-160 c16 -88 43 -240 60 -338 18 -98 36 -212 41 -255 7 -64 8 -52 5 73 -2 83
-13 224 -25 315 -28 235 -29 241 -20 235 4 -3 11 -26 15 -52 4 -27 31 -142 60
-258 29 -115 59 -255 65 -310 18 -144 30 -149 24 -10 -6 142 -29 334 -49 423
-8 35 -15 69 -14 75 2 51 119 -368 195 -702 3 -13 7 -21 9 -19 3 2 -13 121
-36 263 -22 141 -38 262 -36 268 4 13 73 -244 97 -366 11 -54 27 -167 35 -250
8 -84 26 -267 40 -407 82 -819 195 -1256 474 -1835 114 -236 336 -633 347
-622 2 2 -59 164 -136 361 -260 662 -383 1007 -485 1356 -60 205 -108 391
-102 396 1 2 18 -43 36 -99 74 -227 289 -800 290 -774 1 5 -15 92 -34 195 -71
380 -152 927 -190 1272 -8 80 -18 161 -21 180 -11 66 13 18 105 -210 49 -124
90 -222 91 -219 0 3 -23 142 -50 309 -28 166 -49 307 -48 312 2 6 16 -32 32
-83 27 -93 105 -273 113 -265 3 2 -22 105 -56 228 -74 274 -167 630 -220 843
-42 171 -59 247 -121 555 -50 246 -83 359 -172 583 -38 98 -68 180 -66 182 2
3 22 -35 43 -83 85 -189 146 -315 151 -309 8 8 -82 274 -142 420 -72 173 -72
172 -28 97 21 -36 62 -121 91 -190 73 -169 74 -173 67 -130 -9 54 -60 220
-120 388 -31 85 -54 156 -51 158 6 7 101 -201 136 -301 46 -127 51 -138 44
-85 -12 96 -74 312 -137 480 -36 96 -64 176 -61 178 2 2 21 -34 43 -80 120
-251 154 -319 158 -315 7 6 -55 194 -137 421 -80 219 -90 273 -20 105 55 -133
153 -319 158 -302 2 6 -36 132 -85 280 -50 147 -88 270 -87 272 7 6 113 -224
141 -304 15 -44 31 -84 36 -90 8 -9 6 8 -14 115 -15 78 -81 266 -140 395 -70
154 -69 164 2 55 63 -96 150 -263 150 -287 0 -7 5 -13 11 -13 6 0 8 9 4 23
-18 56 -121 328 -170 448 -30 72 -53 134 -51 137 3 2 20 -27 40 -65 19 -39 49
-94 67 -124 18 -30 53 -90 77 -134 38 -70 42 -75 37 -42 -6 39 -68 204 -128
342 -19 44 -44 101 -56 128 -11 26 -19 47 -17 47 3 0 21 -30 42 -67 61 -112
169 -283 172 -274 3 10 -101 273 -153 386 -20 44 -43 96 -51 115 -13 32 -13
34 2 15 60 -76 184 -294 221 -390 l24 -60 -6 45 c-11 81 -68 232 -157 415 -49
99 -79 169 -68 155 10 -14 79 -113 152 -221 73 -108 134 -193 136 -189 2 5
-14 41 -34 82 -58 115 -255 551 -251 555 2 2 19 -25 37 -59 45 -85 123 -208
186 -293 52 -71 86 -131 109 -194 9 -23 14 -29 14 -16 1 25 -109 297 -211 524
-44 97 -82 183 -85 191 -5 14 63 -96 214 -343 29 -49 70 -120 89 -159 37 -74
54 -85 34 -21 -22 67 -148 359 -220 510 -39 80 -70 148 -70 150 0 2 45 -62 99
-144 191 -286 261 -387 261 -377 0 20 -103 260 -184 429 -48 99 -83 175 -78
170 12 -13 178 -245 219 -305 17 -25 47 -78 68 -118 21 -40 40 -70 42 -68 9 9
-90 238 -187 431 -58 116 -107 215 -109 220 -2 6 21 -26 51 -70 30 -44 93
-134 141 -200 48 -66 107 -156 132 -200 28 -50 45 -72 45 -58 0 47 -147 382
-236 536 -25 43 -44 80 -42 82 2 2 38 -44 80 -103 43 -59 106 -147 142 -197
36 -49 89 -130 117 -178 28 -48 54 -86 56 -84 7 8 -116 287 -212 482 -52 105
-89 181 -82 171 72 -113 369 -542 391 -563 10 -10 -29 73 -172 375 -66 138
-119 252 -118 252 2 0 20 -28 41 -62 22 -35 79 -120 127 -189 49 -70 111 -169
138 -220 27 -52 50 -91 50 -87 1 32 -128 349 -194 474 -50 98 -48 96 91 -71
125 -151 195 -243 229 -300 32 -55 40 -58 19 -7 -56 133 -193 366 -311 527
-20 28 28 -17 107 -100 226 -236 322 -332 306 -305 -8 14 -61 104 -117 200
-57 96 -130 215 -162 263 -33 49 -58 91 -55 93 2 2 31 -31 64 -74 33 -42 116
-138 184 -212 68 -74 148 -162 178 -195 41 -46 49 -52 33 -25 -149 263 -227
394 -290 489 -43 62 -83 123 -91 135 -24 36 20 -12 269 -286 128 -142 235
-258 237 -258 13 0 -208 368 -321 535 -121 178 -123 184 -16 55 34 -41 132
-152 219 -245 86 -94 176 -193 200 -220 53 -61 48 -49 -97 190 -105 174 -177
284 -262 405 -65 91 242 -243 414 -453 49 -59 91 -107 93 -107 3 0 -4 15 -15
33 -11 17 -65 114 -121 215 -56 101 -140 242 -187 313 -47 72 -84 132 -82 135
2 2 34 -33 70 -79 37 -45 103 -122 149 -172 45 -49 129 -144 187 -210 57 -66
111 -127 120 -135 45 -45 -216 418 -348 615 -77 116 -83 125 -77 125 3 0 32
-35 65 -77 57 -73 98 -121 362 -420 58 -65 120 -136 138 -158 l34 -40 -22 40
c-49 87 -335 584 -370 640 -86 141 -78 136 51 -30 77 -99 217 -269 427 -520
41 -48 -191 413 -288 576 -73 121 -80 135 -48 94 162 -209 394 -498 486 -604
22 -25 -177 380 -272 557 -25 45 -43 82 -42 82 2 0 49 -60 104 -132 176 -233
349 -453 394 -503 6 -5 -33 73 -85 175 -111 217 -263 550 -252 550 3 0 16 -22
29 -49 40 -77 156 -246 258 -372 146 -182 211 -259 215 -255 2 1 -29 69 -68
151 -61 129 -219 498 -219 513 0 3 25 -34 56 -84 59 -92 403 -584 409 -584 2
0 -17 48 -42 108 -25 59 -61 150 -81 202 -19 52 -60 158 -89 235 -73 188 -74
197 -10 80 29 -55 69 -125 88 -155 19 -30 48 -77 64 -104 51 -83 238 -352 230
-331 -46 124 -217 676 -211 682 2 2 13 -20 26 -49 36 -85 370 -682 377 -674 2
2 -1 16 -8 32 -32 85 -180 655 -179 692 0 4 30 -63 65 -148 68 -161 266 -573
272 -566 2 2 -5 39 -16 82 -38 152 -74 350 -101 557 -14 106 -12 132 6 72 54
-182 102 -323 146 -424 28 -64 71 -168 95 -231 24 -63 41 -101 38 -85 -24 143
-47 321 -54 434 -12 173 -22 419 -16 406 2 -5 18 -80 35 -165 33 -168 82 -353
136 -513 19 -55 34 -112 34 -126 0 -15 5 -33 11 -41 8 -11 9 -5 4 25 -23 134
-21 608 3 795 l8 65 8 -100 c14 -184 35 -352 65 -507 16 -84 33 -175 38 -203
8 -42 10 -25 16 115 8 195 28 373 63 565 14 77 26 140 27 141 1 1 3 -113 4
-254 1 -174 7 -314 20 -432 l19 -175 8 90 c11 136 43 313 86 485 43 169 103
358 94 297 -3 -21 -12 -87 -20 -145 -9 -63 -17 -216 -20 -372 l-4 -265 25 95
c44 165 114 386 165 524 45 122 98 247 85 202 -43 -147 -69 -275 -90 -436 -13
-107 -31 -244 -40 -304 -18 -128 -18 -147 0 -86 12 46 90 253 146 390 38 93
191 411 196 407 1 -2 -13 -50 -33 -108 -43 -127 -105 -366 -139 -533 -30 -146
-31 -182 -4 -106 35 100 167 353 267 513 54 86 101 160 104 163 3 3 -24 -73
-61 -168 -87 -224 -216 -598 -206 -598 1 0 26 42 56 93 71 124 186 295 300
447 126 168 128 169 69 60 -58 -107 -163 -322 -190 -390 -64 -159 -80 -203
-77 -207 2 -2 24 27 49 64 79 120 201 265 323 386 66 64 124 117 129 117 5 0
-2 -12 -16 -27 -76 -83 -194 -260 -373 -558 -90 -150 -94 -159 -65 -125 12 14
36 41 54 61 85 96 449 429 551 505 39 28 39 28 -15 -35 -30 -35 -81 -96 -114
-135 -79 -96 -356 -464 -356 -473 0 -4 33 24 73 63 90 89 169 155 322 270 114
85 293 211 325 229 8 4 -75 -84 -186 -196 -257 -262 -439 -466 -329 -370 57
49 270 192 396 265 256 148 244 140 241 166 -4 29 -71 243 -184 590 -137 418
-181 478 -513 700 -885 590 -1738 968 -2540 1124 -537 105 -1149 130 -1735 71
-79 -8 -146 -12 -148 -10 -5 5 112 39 218 64 394 91 795 136 1341 150 340 8
390 5 518 -38 178 -60 909 -366 1291 -542 289 -132 765 -369 995 -494 392
-214 427 -227 833 -324 972 -232 2045 -668 2699 -1097 344 -226 423 -312 503
-552 56 -169 83 -353 100 -692 29 -587 50 -697 212 -1110 74 -189 80 -210 80
-277 0 -60 -5 -83 -30 -135 -29 -60 -91 -138 -110 -138 -5 0 -15 19 -22 43
-14 49 -48 117 -83 169 l-26 37 21 38 c31 60 21 197 -25 333 -33 97 -84 220
-92 220 -2 0 3 -24 11 -52 39 -149 49 -334 20 -402 l-16 -37 -57 44 c-228 175
-526 329 -778 402 -88 25 -143 37 -530 110 -968 184 -1825 361 -3588 742
l-1002 216 -140 1 c-151 1 -189 -8 -263 -62 -37 -26 -55 -26 -152 2 -30 8
-101 21 -158 28 -235 27 -489 -42 -708 -193 -93 -65 -235 -212 -299 -311 l-50
-77 -60 -1 c-81 -1 -188 -24 -255 -57 -152 -73 -223 -192 -223 -373 1 -118 19
-170 76 -211 75 -55 149 -51 220 11 25 22 48 40 52 40 13 0 -6 -133 -24 -175
-10 -22 -39 -72 -64 -112 -102 -159 -181 -361 -211 -542 -20 -119 -21 -347 -1
-466 69 -425 331 -812 717 -1059 165 -105 352 -178 558 -217 109 -21 128 -27
155 -54 30 -31 151 -286 310 -655 41 -96 79 -176 83 -178 5 -1 12 41 16 95 27
396 107 864 216 1260 22 79 40 147 40 150 0 3 -24 -19 -53 -49 -92 -96 -198
-134 -346 -126 -146 9 -234 48 -411 182 -232 176 -496 448 -632 651 -124 184
-209 397 -249 621 -28 156 -31 435 -6 605 24 160 79 377 120 476 70 166 183
302 357 431 301 224 635 300 857 195 62 -29 193 -148 257 -232 131 -173 192
-361 190 -586 -2 -197 -52 -354 -156 -492 -26 -35 -43 -63 -38 -63 22 0 169
161 214 234 27 42 63 116 79 164 27 76 31 100 31 192 0 94 -4 116 -36 210 -20
58 -59 155 -87 216 -28 61 -51 119 -51 128 0 51 55 37 795 -204 1240 -404
2252 -729 2475 -795 300 -89 303 -90 307 -101 4 -16 -43 -43 -104 -59 -36 -10
-95 -15 -158 -15 -55 1 -104 1 -110 0 -17 -2 103 -54 268 -115 113 -42 153
-62 140 -67 -10 -4 -133 -26 -273 -49 -140 -22 -257 -43 -259 -45 -5 -4 -2 -5
129 -38 61 -16 149 -48 210 -78 140 -67 230 -156 309 -303 98 -183 165 -259
274 -311 33 -16 37 -22 37 -55 0 -172 24 -657 35 -711 30 -148 127 -273 260
-339 61 -30 79 -34 146 -34 73 0 83 3 179 52 l102 52 102 -34 c55 -19 130 -39
165 -44 35 -6 66 -12 68 -15 3 -3 -12 -20 -33 -38 -222 -192 -413 -426 -587
-719 -84 -141 -201 -359 -195 -364 7 -7 333 289 472 427 76 76 140 138 142
138 1 0 18 -28 36 -62 61 -114 160 -203 284 -256 64 -27 134 -39 134 -23 0 6
-6 11 -13 11 -25 0 -166 101 -200 143 -82 101 -114 211 -104 362 11 165 64
259 207 366 185 139 392 365 553 604 59 87 242 387 250 409 8 21 18 -2 37 -80
33 -139 122 -371 489 -1272 39 -96 73 -188 76 -206 8 -41 -18 -143 -56 -218
-56 -110 -157 -182 -279 -196 -84 -10 -156 -1 -310 38 -79 20 -162 34 -226 37
-94 5 -106 4 -157 -20 -60 -27 -107 -84 -133 -162 -9 -24 -21 -49 -28 -54 -7
-6 -69 -22 -137 -36 -160 -32 -156 -31 -134 -55 25 -28 16 -32 -30 -15 -50 18
-77 18 -127 3 -45 -13 -57 -31 -37 -55 13 -15 10 -16 -26 -10 -22 4 -50 10
-62 13 -20 6 -23 3 -23 -25 0 -34 -14 -41 -28 -14 -9 15 -13 15 -56 -1 -50
-19 -55 -26 -30 -47 14 -12 14 -14 -3 -20 -31 -13 -70 -10 -83 6 -20 24 -37
17 -61 -25 -24 -43 -42 -47 -47 -12 -5 33 -24 27 -65 -23 -43 -51 -57 -56 -57
-19 0 34 3 36 -215 -92 -173 -101 -182 -108 -217 -165 -43 -68 -73 -80 -62
-24 3 19 3 35 0 35 -4 0 -28 -11 -55 -24 -95 -48 -135 -127 -95 -184 9 -13 11
-22 4 -22 -6 0 -25 20 -42 45 l-32 45 -30 -29 c-26 -26 -29 -37 -29 -90 0 -69
-12 -81 -20 -20 -3 22 -8 43 -12 47 -3 3 -24 -12 -47 -35 l-41 -41 12 -45 c6
-25 11 -53 11 -61 0 -27 -24 -17 -49 19 -28 41 -51 42 -65 2 -9 -26 -2 -74 19
-129 9 -23 -12 -24 -36 -2 -10 9 -25 14 -34 11 -12 -5 -15 -26 -15 -109 0 -63
-4 -98 -9 -92 -5 5 -17 64 -27 132 -9 67 -20 122 -24 122 -7 0 -79 -223 -106
-330 -9 -36 -29 -128 -45 -205 -16 -77 -27 -122 -24 -100 2 22 10 117 16 212
18 258 -4 482 -63 668 l-23 70 -2 -45 c-2 -25 -12 -139 -23 -255 -26 -270 -40
-461 -41 -555 -1 -41 -4 -86 -8 -100 -4 -14 -5 49 -3 140 10 374 -41 679 -151
900 l-52 105 -6 -215 c-6 -174 -55 -711 -73 -790 -2 -8 -4 77 -5 190 -1 289
-26 462 -98 685 -40 125 -136 335 -153 335 -6 0 -9 -3 -6 -8 21 -35 47 -882
27 -882 -7 0 -11 27 -11 68 -1 273 -91 691 -204 948 l-31 71 0 -276 c0 -152
-4 -343 -10 -426 l-9 -150 -7 195 c-8 218 -27 373 -65 530 -28 113 -82 270
-92 270 -4 0 -7 -73 -7 -162 0 -90 -9 -284 -20 -433 l-20 -270 -6 285 c-4 157
-12 330 -19 385 -12 105 -46 291 -58 326 -5 12 -25 -118 -51 -328 -47 -376
-64 -482 -56 -348 13 208 17 488 10 670 -8 191 -9 198 -22 155 -21 -69 -91
-376 -104 -458 -7 -40 -14 -70 -16 -68 -2 2 3 91 11 197 9 107 21 289 26 404
6 116 13 224 16 240 8 50 -32 -56 -86 -225 -57 -181 -130 -437 -130 -458 0 -9
-3 -13 -6 -9 -3 3 1 52 10 109 25 167 34 248 61 528 14 146 28 288 31 315 4
33 3 47 -4 40 -15 -16 -107 -277 -162 -463 -72 -239 -74 -238 -21 13 18 83 57
301 87 485 30 184 57 346 60 360 10 47 -12 6 -30 -55 -10 -33 -60 -172 -111
-310 -51 -137 -99 -269 -106 -293 -7 -23 -14 -41 -16 -39 -2 2 17 82 41 178
54 211 88 384 115 588 12 84 21 156 21 160 -2 24 -122 -318 -174 -494 -23 -77
-19 -41 14 128 58 306 107 631 99 656 -2 6 -32 -76 -65 -182 -106 -332 -209
-645 -211 -643 -2 1 13 70 32 153 62 270 109 592 120 828 l6 110 -29 -105
c-16 -58 -48 -172 -71 -255 -23 -82 -49 -187 -59 -232 -9 -46 -19 -83 -22 -83
-3 0 -1 37 6 83 34 231 57 724 37 777 -9 22 -11 20 -17 -25 -24 -161 -173
-821 -184 -811 -2 2 6 64 17 137 47 308 63 621 45 842 -8 87 -24 104 -24 25 0
-85 -27 -243 -65 -388 -19 -74 -49 -190 -66 -258 -18 -67 -33 -121 -35 -119
-2 2 3 38 11 81 8 43 22 133 30 199 15 126 47 588 41 594 -2 2 -18 -49 -36
-114 -70 -255 -223 -671 -328 -898 -26 -55 -107 -208 -180 -340 -331 -597
-943 -1877 -1052 -2202 -90 -271 -114 -594 -61 -849 52 -252 157 -472 341
-714 229 -302 526 -752 687 -1040 92 -164 309 -588 295 -575 -6 6 -61 98 -123
205 -260 455 -588 941 -829 1232 -131 158 -165 196 -168 193 -2 -2 43 -72 101
-157 194 -283 330 -525 592 -1048 159 -318 285 -586 384 -819 91 -213 81 -204
-37 34 -306 619 -615 1122 -945 1538 -38 48 -72 85 -76 82 -3 -4 1 -12 10 -19
28 -20 215 -341 319 -546 54 -107 181 -382 283 -610 102 -228 246 -549 321
-714 75 -164 135 -300 134 -302 -2 -1 -45 74 -96 169 -132 246 -268 476 -398
675 -116 176 -304 435 -327 449 -6 4 -3 -6 8 -22 118 -180 340 -602 470 -895
133 -301 375 -943 361 -958 -2 -2 -21 27 -42 65 -111 202 -199 347 -309 513
-126 190 -315 451 -315 436 0 -5 17 -32 39 -60 59 -79 361 -591 471 -801 29
-55 63 -118 75 -140 68 -121 336 -669 346 -708 19 -77 7 -95 -211 -325 l-200
-211 213 1 c286 0 402 -26 501 -112 81 -72 99 -141 97 -388 l-1 -193 83 -39
c186 -86 884 -398 906 -405 l24 -7 -22 28 c-60 77 -299 328 -415 436 -202 188
-206 193 -61 84 184 -137 356 -289 549 -484 126 -127 181 -163 276 -178 l45
-7 -34 39 c-245 283 -569 623 -751 788 l-85 78 95 -66 c452 -312 600 -410 600
-397 0 4 -26 42 -58 82 -89 113 -166 227 -202 299 -29 58 -34 81 -46 210 -57
603 -241 1079 -590 1530 -112 144 -371 404 -531 534 -68 54 -123 102 -123 107
0 5 57 125 128 266 171 347 276 583 413 937 38 99 71 181 73 183 2 2 50 -61
107 -139 272 -374 460 -576 668 -718 33 -22 154 -91 268 -152 741 -396 919
-513 1212 -794 61 -59 111 -103 111 -100 0 9 -30 81 -149 355 -56 129 -100
238 -99 243 3 8 253 -191 478 -382 179 -151 169 -143 318 -287 75 -73 137
-131 139 -130 1 2 -20 93 -46 203 -27 109 -48 200 -47 202 4 4 63 -32 526
-318 290 -180 437 -265 441 -257 4 7 9 113 12 237 6 250 27 400 93 669 47 192
207 726 330 1102 64 198 98 336 119 479 69 485 -82 924 -397 1160 -116 87
-145 116 -175 175 -35 68 -42 171 -17 251 15 50 29 70 95 134 102 99 114 123
114 230 0 83 -6 103 -61 226 -3 5 17 16 44 23 123 31 261 119 362 228 184 201
252 466 170 672 -36 92 -88 159 -186 239 -44 36 -68 66 -88 107 -15 32 -25 60
-22 63 3 3 63 -7 133 -23 166 -36 306 -43 393 -21 100 25 186 73 259 146 137
134 181 300 126 465 -10 27 -54 112 -99 189 -46 78 -109 191 -141 251 l-59
111 174 444 c95 245 198 510 229 589 l56 143 49 19 c91 34 126 85 126 182 0
78 -22 116 -94 164 -101 69 -252 98 -497 97 l-176 0 52 48 c161 147 187 338
80 581 -170 384 -201 529 -230 1047 -27 494 -62 703 -153 927 l-30 73 51 36
c219 157 497 501 662 816 280 538 339 1082 168 1572 -126 362 -403 686 -851
994 -133 91 -503 313 -762 457 -284 158 -942 490 -905 457 6 -5 57 -44 115
-88 125 -94 315 -275 417 -397 300 -359 488 -828 533 -1327 29 -321 -47 -624
-218 -866 -58 -82 -150 -184 -195 -216 -29 -21 -28 -20 13 43 94 145 162 320
195 506 24 137 37 365 29 493 l-7 115 -12 -116 c-31 -293 -107 -515 -252 -733
-104 -156 -305 -346 -436 -412 l-32 -16 41 43 c244 262 386 574 439 969 18
130 19 346 3 482 l-13 103 -7 -170 c-7 -178 -23 -281 -64 -404 -115 -343 -387
-659 -749 -867 -47 -26 -41 -19 85 116 217 232 309 358 413 566 115 229 165
421 174 664 7 190 -15 333 -77 522 -172 517 -543 919 -1106 1201 -427 214
-1331 480 -2167 637 -275 51 -267 50 -267 46z m1971 -685 c631 -185 1091 -534
1327 -1006 36 -74 112 -264 112 -282 0 -4 -22 32 -49 80 -77 137 -156 241
-281 370 -124 129 -194 183 -91 71 81 -88 204 -272 263 -394 59 -122 112 -275
140 -404 29 -138 31 -401 4 -526 -43 -197 -131 -388 -243 -523 -29 -35 -29
-24 -2 38 72 162 111 461 90 692 -18 211 -76 470 -113 508 -7 7 -8 3 -4 -11
19 -63 37 -173 48 -286 40 -440 -122 -913 -435 -1268 -113 -129 -139 -148 -75
-55 162 233 272 521 314 821 20 148 15 461 -11 598 -44 237 -103 412 -208 620
-119 235 -272 441 -468 632 -127 122 -209 189 -358 288 -62 42 -109 76 -104
76 6 0 70 -18 144 -39z m-2008 -146 c259 -117 421 -221 571 -370 195 -192 314
-389 392 -650 35 -119 45 -326 20 -425 -71 -284 -324 -501 -661 -569 -111 -22
-274 -38 -262 -25 4 4 44 18 90 31 123 35 308 130 404 207 84 68 157 156 199
238 22 44 57 168 50 175 -2 2 -12 -11 -23 -29 -35 -58 -106 -131 -167 -170
-32 -21 -63 -38 -68 -38 -4 0 18 32 51 70 111 133 162 274 160 446 -1 85 -3
92 -9 49 -18 -117 -73 -246 -129 -299 l-28 -27 25 83 c35 117 36 294 3 422
-43 165 -127 332 -244 485 -110 143 -297 315 -447 410 -36 22 -61 41 -57 41 4
0 63 -25 130 -55z m2054 -118 c199 -184 323 -332 422 -505 169 -296 247 -561
258 -877 7 -226 -17 -394 -88 -609 -21 -63 -138 -311 -144 -305 -1 2 17 63 41
134 88 266 125 552 105 815 -42 527 -250 981 -614 1343 -65 64 -115 117 -110
117 4 0 63 -51 130 -113z m-2827 7 c99 -19 258 -73 344 -116 300 -150 472
-397 517 -743 18 -140 -3 -378 -46 -525 -42 -142 -132 -358 -168 -405 -13 -16
-12 -7 4 50 57 204 70 506 31 717 -87 467 -342 821 -726 1004 -50 24 -80 42
-66 39 14 -2 63 -12 110 -21z m-739 -15 c412 -135 667 -533 628 -982 -14 -162
-52 -283 -122 -387 -38 -58 -111 -129 -121 -119 -2 2 18 40 45 84 27 44 63
123 81 175 32 93 33 99 32 265 0 151 -3 182 -27 279 -73 291 -231 495 -512
659 -44 26 -77 47 -74 47 3 0 35 -9 70 -21z m1508 -85 c131 -104 246 -255 312
-413 98 -232 104 -504 17 -741 -50 -136 -111 -231 -78 -120 42 137 52 383 24
551 -41 246 -186 554 -345 734 -24 28 -51 59 -59 69 -15 20 -15 20 18 0 19
-10 69 -47 111 -80z m1237 -47 c453 -335 683 -789 610 -1207 -54 -310 -220
-580 -484 -792 -78 -62 -235 -158 -299 -184 l-38 -15 50 43 c373 317 555 618
602 999 12 95 14 148 7 220 l-9 94 -13 -98 c-19 -137 -45 -226 -103 -343 -42
-86 -160 -261 -187 -278 -5 -3 13 39 40 92 131 264 150 633 51 987 -62 222
-182 406 -368 564 l-50 43 43 -24 c23 -12 90 -58 148 -101z m-5732 -77 c157
-298 450 -503 791 -554 76 -11 85 -14 60 -21 -36 -10 -217 8 -300 30 -73 19
-188 72 -252 117 -105 71 -220 212 -290 353 -38 75 -50 115 -57 185 l-5 55 18
-65 c9 -36 25 -81 35 -100z m6166 21 c290 -215 497 -538 555 -868 20 -114 19
-324 -1 -444 -35 -209 -136 -445 -274 -641 -61 -87 -298 -344 -307 -334 -3 2
26 40 64 84 243 281 385 638 400 1002 18 442 -141 853 -460 1188 -90 94 -88
95 23 13z m-3372 -158 c355 -204 523 -605 376 -895 -30 -59 -123 -163 -136
-150 -4 4 3 30 16 58 78 162 84 351 16 550 -53 156 -137 284 -262 398 -40 36
-69 66 -64 66 4 0 28 -12 54 -27z m-340 -9 c154 -31 301 -126 380 -243 118
-177 129 -377 32 -577 -23 -47 -43 -84 -45 -82 -2 2 5 37 16 78 27 99 22 255
-10 348 -44 129 -161 281 -275 358 -52 35 -192 100 -236 109 -19 4 -42 11 -50
16 -26 15 106 10 188 -7z m-445 -186 c275 -147 371 -478 215 -737 -44 -73 -65
-78 -32 -8 114 250 26 547 -221 745 -50 41 -39 41 38 0z m-270 -130 c202 -108
292 -312 224 -507 -25 -72 -83 -171 -100 -171 -5 0 -7 3 -5 8 62 119 85 227
70 318 -18 106 -64 187 -168 292 -51 50 -90 92 -87 92 3 0 32 -15 66 -32z
m5159 -242 c20 -87 23 -129 23 -306 0 -178 -3 -219 -23 -309 -73 -324 -246
-634 -518 -932 -35 -38 -64 -67 -64 -64 0 4 24 36 54 73 196 244 382 625 450
922 56 246 64 534 21 795 -10 60 35 -80 57 -179z m2111 1 c282 -206 434 -365
590 -617 244 -396 247 -903 5 -1277 -49 -75 -143 -181 -192 -216 l-31 -22 23
35 c84 128 167 334 204 503 32 148 32 415 0 574 -12 62 -27 123 -33 135 -9 22
-9 22 -5 -2 47 -257 25 -538 -58 -749 -74 -185 -213 -361 -373 -469 -102 -69
-112 -70 -54 -6 162 176 256 368 312 634 17 82 22 141 23 270 1 163 -9 300
-22 300 -4 0 -6 -60 -4 -132 9 -360 -111 -685 -342 -926 -84 -88 -175 -159
-268 -212 -64 -35 -75 -29 -27 16 51 47 174 217 224 308 91 167 167 414 181
586 l5 75 -40 -118 c-49 -142 -111 -270 -188 -386 -70 -105 -249 -286 -355
-359 -73 -50 -194 -122 -205 -122 -3 0 31 38 75 85 292 308 434 633 474 1081
26 299 -35 666 -163 976 l-30 73 42 -40 c167 -162 325 -396 435 -645 38 -86
41 -79 15 40 -27 118 -74 248 -132 362 -52 99 -157 255 -203 297 -26 24 -33
41 -18 41 4 0 65 -42 135 -93z m-4872 -202 c27 -68 33 -97 37 -191 7 -172 -31
-276 -139 -379 -78 -74 -108 -74 -40 0 90 99 151 258 151 395 0 73 -23 179
-55 248 -21 48 -22 53 -5 32 11 -14 34 -61 51 -105z m5460 -138 c325 -284 503
-645 498 -1010 l-2 -92 -9 102 c-23 269 -121 495 -327 753 -11 14 12 -40 52
-120 126 -252 172 -433 164 -650 -8 -223 -72 -395 -210 -562 -21 -27 -43 -48
-48 -48 -4 0 4 28 20 63 175 390 155 897 -51 1325 -44 91 -123 216 -174 276
-19 22 -34 43 -34 48 0 15 34 -8 121 -85z m-4941 -4287 c371 -116 860 -272
1085 -345 491 -160 997 -323 1345 -435 140 -45 289 -92 330 -106 41 -13 82
-24 90 -24 9 0 24 23 37 61 41 112 177 317 198 297 4 -3 -26 -113 -66 -242
-57 -183 -77 -236 -90 -236 -9 0 -36 7 -60 16 -24 9 -168 58 -319 109 -151 52
-399 136 -550 189 -521 179 -2475 848 -2610 893 -74 25 -139 50 -145 54 -5 5
11 3 35 -5 25 -9 349 -110 720 -226z m3705 -727 l80 -7 -75 -8 c-106 -11 -132
-23 -193 -83 -141 -138 -170 -218 -231 -640 -20 -132 -61 -404 -92 -605 -65
-418 -71 -530 -36 -660 11 -41 19 -76 17 -78 -1 -2 -15 7 -29 20 -74 64 -63
277 64 1237 23 169 50 343 61 389 42 169 110 294 217 395 57 53 64 57 99 52
21 -2 74 -8 118 -12z m988 -733 c27 -57 28 -154 3 -230 -37 -111 -474 -958
-541 -1051 -88 -119 -231 -217 -369 -253 -66 -17 -64 -8 4 18 186 72 303 187
445 441 88 157 320 613 376 740 l44 100 0 120 c0 66 -3 138 -8 160 -7 38 -7
39 9 20 9 -11 26 -40 37 -65z m-1176 -4182 c98 -47 213 -98 255 -113 43 -15
76 -31 73 -35 -10 -17 -209 -35 -375 -34 -146 1 -188 5 -255 23 -96 26 -205
77 -205 96 0 25 106 122 152 139 28 10 66 14 110 12 60 -3 86 -12 245 -88z
m-10090 -2052 c846 -380 1629 -897 2413 -1594 177 -158 413 -380 419 -395 2
-5 -70 51 -160 125 -915 751 -1893 1424 -2701 1857 -85 46 -109 61 -95 61 2 0
58 -24 124 -54z" class="svg-elem-1"></path>
<path d="M12811 14224 c-143 -126 -258 -230 -256 -233 3 -2 15 5 28 16 35 33
261 165 397 233 69 34 126 63 128 65 3 2 -28 138 -33 143 -2 2 -120 -99 -264
-224z" class="svg-elem-2"></path>
<path d="M9445 13284 c-63 -15 -173 -59 -226 -91 -76 -44 -197 -158 -255 -239
-230 -323 -310 -852 -193 -1284 23 -86 80 -242 86 -237 2 3 -5 38 -17 78 -80
287 -81 613 -4 899 93 345 243 552 453 626 83 30 135 30 191 2 63 -33 99 -82
110 -154 5 -32 14 -90 20 -128 18 -110 56 -169 132 -201 21 -8 54 -15 74 -15
46 0 41 -17 -17 -52 -108 -67 -332 -92 -557 -63 -127 16 -134 16 -169 -2 -21
-10 -46 -32 -56 -50 -55 -96 -62 -431 -12 -618 14 -55 43 -136 65 -180 37 -77
140 -215 160 -215 15 0 13 5 -19 63 -64 113 -78 269 -34 369 20 44 97 138 113
138 4 0 10 -31 14 -70 6 -73 34 -157 46 -143 4 4 12 34 19 65 13 62 50 124 94
158 34 27 109 51 126 41 7 -5 16 -49 22 -107 14 -158 52 -311 104 -430 13 -29
21 -54 19 -57 -2 -2 -32 3 -66 10 -86 19 -266 28 -300 14 -33 -12 -61 -52 -52
-75 5 -13 20 -16 75 -16 143 0 297 -50 380 -123 20 -18 78 -89 128 -158 89
-125 140 -179 166 -179 23 0 25 14 10 65 -8 26 -15 76 -15 109 0 62 7 95 50
237 22 72 22 76 6 110 -9 18 -46 57 -82 84 -95 73 -118 116 -122 237 -5 109
16 199 69 297 16 30 27 56 25 58 -2 2 -38 -21 -80 -52 -43 -30 -79 -55 -82
-55 -27 0 42 153 145 320 155 252 186 332 179 464 -4 65 -11 93 -35 141 -63
124 -249 290 -412 369 -76 36 -93 40 -170 42 -47 2 -95 1 -106 -2z" class="svg-elem-3"></path>
<path d="M15961 9419 c-79 -10 -189 -43 -252 -74 -85 -44 -143 -133 -104 -162
27 -19 49 -17 134 14 68 24 89 27 201 27 134 -1 102 6 450 -100 63 -19 98 -24
134 -20 51 6 136 50 144 74 7 21 -76 94 -153 133 -93 49 -209 84 -337 103
-115 17 -122 17 -217 5z" class="svg-elem-4"></path>
<path d="M7975 6460 c158 -318 479 -884 559 -985 16 -19 16 -19 7 6 -16 44
-165 348 -221 449 -102 184 -335 557 -372 595 -6 6 7 -24 27 -65z" class="svg-elem-5"></path>
<path d="M2990 4855 c-52 -52 -92 -96 -89 -99 2 -2 60 -21 129 -41 557 -166
1276 -477 1885 -815 281 -156 756 -452 930 -580 28 -20 109 -79 180 -131 430
-310 990 -786 1485 -1264 125 -120 221 -205 245 -216 39 -17 155 -41 155 -31
0 7 -235 287 -364 432 -167 188 -589 608 -786 782 -653 577 -1320 1033 -2050
1402 -427 216 -817 375 -1460 596 -69 24 -129 47 -134 52 -19 16 -33 7 -126
-87z" class="svg-elem-6"></path>
<path d="M2770 4573 c8 -3 105 -37 215 -75 1516 -531 2845 -1346 4131 -2535
125 -115 167 -139 232 -131 25 3 17 13 -108 142 -1126 1157 -2712 2146 -4020
2507 -189 52 -533 122 -450 92z" class="svg-elem-7"></path>
<path d="M3215 4161 c680 -258 1301 -567 1915 -954 496 -312 1007 -691 1448
-1075 178 -154 201 -170 268 -178 l49 -5 -115 112 c-63 62 -193 181 -289 266
-1003 886 -2138 1529 -3280 1859 -85 24 -159 44 -165 44 -6 -1 70 -31 169 -69z" class="svg-elem-8"></path>
<path d="M3221 3916 c2 -2 90 -37 194 -79 706 -281 1418 -666 2025 -1095 173
-122 436 -321 553 -419 142 -118 293 -210 313 -190 13 13 -335 314 -551 476
-729 546 -1387 898 -2292 1227 -211 77 -254 91 -242 80z" class="svg-elem-9"></path>
</g>
</svg>
