<?xml version="1.0" standalone="no"?>
<!DOCTYPE svg PUBLIC "-//W3C//DTD SVG 20010904//EN"
 "http://www.w3.org/TR/2001/REC-SVG-20010904/DTD/svg10.dtd">
<svg version="1.0" xmlns="http://www.w3.org/2000/svg"
 width="477.000000pt" height="392.000000pt" viewBox="0 0 477.000000 392.000000"
 preserveAspectRatio="xMidYMid meet">

<g transform="translate(0.000000,392.000000) scale(0.100000,-0.100000)"
fill="#000000" stroke="none">
<path d="M3807 3789 c-15 -27 -16 -36 -5 -60 7 -16 15 -29 18 -29 3 0 13 13
22 29 14 25 14 32 3 41 -8 6 -15 20 -17 31 -2 16 -6 14 -21 -12z"/>
<path d="M1296 3645 c-16 -99 -54 -176 -101 -202 -14 -8 -12 -14 18 -44 35
-35 77 -142 77 -195 0 -13 5 -24 10 -24 6 0 10 11 10 25 0 49 42 138 86 182
48 47 51 53 30 53 -21 0 -72 63 -87 107 -7 21 -18 63 -24 93 l-11 55 -8 -50z"/>
<path d="M2766 3644 c-38 -38 -35 -74 22 -232 35 -95 39 -117 30 -138 -14 -30
-42 -31 -66 -3 -25 31 -222 191 -254 207 -34 17 -63 8 -85 -24 -36 -56 18
-133 139 -199 55 -30 71 -34 87 -25 12 6 21 17 21 25 0 22 20 28 39 11 10 -9
22 -16 28 -16 6 0 30 -15 54 -34 36 -27 48 -45 63 -92 10 -33 21 -65 23 -71 7
-19 -94 -63 -144 -63 -51 0 -83 26 -83 69 0 55 62 70 87 21 12 -24 13 -25 13
-2 0 28 -33 62 -61 62 -23 0 -60 -18 -71 -34 -4 -6 -8 -29 -8 -52 0 -47 26
-77 78 -91 l33 -8 -143 -99 c-79 -55 -172 -115 -208 -134 -62 -32 -69 -34
-141 -29 -48 3 -90 12 -116 25 -48 25 -101 82 -109 120 -3 15 -7 32 -9 39 -8
26 24 115 51 144 101 106 218 67 304 -101 l24 -45 13 45 c8 25 17 81 20 126
11 153 -36 236 -160 282 -233 87 -418 20 -528 -192 -30 -57 -39 -67 -79 -82
-90 -34 -152 -87 -178 -150 l-13 -29 -112 -1 c-126 -1 -175 -11 -236 -52 -80
-54 -163 -190 -197 -325 -19 -73 -22 -229 -5 -307 6 -30 12 -125 14 -211 l2
-157 -35 13 c-19 7 -70 27 -114 44 -96 39 -126 35 -38 -4 34 -15 61 -30 58
-32 -2 -2 -21 4 -43 15 -47 24 -92 38 -78 25 6 -5 61 -31 123 -58 61 -27 112
-52 112 -56 0 -5 -21 1 -47 12 -149 65 -207 88 -211 84 -3 -2 15 -13 39 -23
24 -11 85 -37 134 -58 50 -21 83 -40 75 -42 -8 -1 -66 20 -129 48 -63 28 -116
48 -118 46 -6 -6 21 -20 83 -45 94 -37 166 -72 162 -77 -3 -2 -62 20 -132 50
-69 30 -126 51 -126 46 0 -4 56 -31 125 -60 69 -30 125 -57 125 -61 0 -4 -49
14 -108 41 -60 26 -120 51 -133 54 -24 7 -24 7 2 -8 14 -8 70 -34 125 -57 54
-23 103 -46 109 -50 21 -20 -20 -6 -140 46 -70 31 -130 53 -133 51 -3 -3 17
-15 44 -27 152 -64 214 -93 209 -97 -2 -2 -59 19 -125 48 -67 28 -123 50 -126
47 -2 -2 23 -16 56 -31 33 -14 88 -38 121 -53 34 -15 58 -28 53 -30 -5 -2 -61
19 -124 47 -62 27 -115 48 -118 46 -5 -6 23 -20 84 -45 94 -37 166 -72 162
-77 -3 -2 -62 20 -132 50 -69 30 -126 51 -126 47 0 -3 30 -20 67 -35 157 -67
176 -76 171 -81 -3 -3 -52 15 -109 41 -57 25 -113 48 -124 50 -34 9 22 -22
107 -57 43 -18 76 -34 74 -36 -2 -2 -48 14 -102 37 -53 22 -102 39 -107 37
-12 -4 259 -137 293 -143 18 -4 37 3 67 25 24 17 45 31 47 31 3 0 -11 -25 -29
-56 -54 -90 -67 -175 -40 -279 47 -179 212 -328 410 -370 120 -25 256 -15 386
28 38 13 69 20 69 16 0 -13 -84 -80 -135 -107 -45 -24 -60 -27 -145 -26 -52 1
-137 9 -189 18 -52 9 -95 15 -97 14 -10 -10 284 -90 349 -95 69 -5 81 -3 131
21 30 15 79 51 110 81 l54 54 7 -38 c8 -50 35 -92 80 -127 86 -65 244 -33 304
62 l28 43 24 -50 c67 -144 216 -195 368 -128 93 41 125 91 125 196 0 49 3 67
9 56 13 -21 21 -135 13 -167 -18 -72 -136 -148 -249 -161 -108 -13 -174 -61
-184 -136 l-6 -42 49 7 c27 4 85 12 129 18 44 6 150 11 235 11 236 -1 376 -36
525 -131 157 -101 279 -146 424 -157 l76 -6 -56 24 c-86 36 -127 65 -169 118
-56 72 -82 148 -84 244 0 72 4 92 42 190 43 109 67 227 52 254 -6 11 -9 10
-14 -7 -30 -94 -176 -145 -261 -89 -93 61 -102 205 -16 266 28 21 83 27 116
15 22 -9 47 -61 40 -84 -3 -10 -12 -24 -20 -30 -13 -11 -14 -8 -9 19 12 58
-38 81 -89 41 -33 -26 -42 -69 -23 -113 45 -108 206 -56 206 66 0 33 -25 87
-100 220 -31 56 -64 146 -56 154 2 2 24 -29 49 -69 51 -80 156 -194 167 -181
4 4 19 64 34 133 16 69 39 167 51 218 35 140 65 165 221 183 157 17 244 61
244 124 0 12 -11 44 -25 71 -30 60 -31 68 -4 110 24 39 20 50 -22 59 l-31 7
26 27 c33 34 33 47 -2 65 -15 8 -34 26 -42 40 -12 24 -11 29 18 70 51 71 45
81 -83 143 -92 45 -125 65 -125 75 0 3 14 20 30 36 17 17 30 39 30 48 0 16 -2
15 -16 -4 -8 -12 -28 -29 -45 -37 -29 -15 -30 -15 -40 12 -13 32 -14 58 -4
168 16 177 -61 348 -183 405 -42 21 -380 95 -389 86 -2 -2 25 -11 59 -21 121
-33 270 -97 309 -132 47 -42 82 -101 103 -172 23 -77 20 -85 -8 -24 -35 73
-105 137 -211 189 -92 45 -222 84 -282 84 -19 0 -65 -5 -102 -11 l-67 -11 -65
66 c-74 77 -84 100 -93 218 -7 88 -7 88 19 100 14 6 28 22 31 35 23 90 -75
193 -130 137z m74 -39 c6 -8 14 -32 17 -54 4 -32 2 -42 -11 -47 -34 -13 -76
58 -60 101 8 19 38 19 54 0z m-292 -209 c66 -49 93 -81 85 -102 -9 -23 -57
-16 -106 17 -57 37 -77 64 -77 101 0 41 27 36 98 -16z m387 -300 c29 -23 29
-23 7 -30 -28 -9 -38 -2 -44 29 -6 31 -1 31 37 1z m-1015 2 c0 -14 -40 -58
-52 -58 -12 0 -10 44 4 58 15 15 48 16 48 0z m-102 -10 c7 -7 12 -28 12 -47
l0 -35 -25 34 c-14 19 -25 40 -25 47 0 16 22 17 38 1z m1416 -23 c8 -8 24 -15
35 -15 26 0 29 -35 4 -49 -14 -7 -15 -12 -5 -23 14 -18 6 -28 -23 -28 -11 0
-26 -5 -33 -12 -15 -15 -42 6 -42 33 0 10 -8 22 -17 28 -14 8 -15 12 -4 25 7
9 19 16 26 16 7 0 15 9 18 20 6 24 20 26 41 5z m-1474 -25 c19 -10 47 -87 36
-98 -3 -3 -6 -1 -6 5 0 6 -16 20 -35 32 -25 15 -35 27 -35 46 0 27 10 31 40
15z m194 -19 c8 -12 -19 -33 -61 -47 -33 -12 -34 -12 -20 10 7 11 17 27 21 34
8 14 52 16 60 3z m-111 -89 c-8 -96 14 -167 69 -223 l43 -43 -35 20 c-19 11
-48 39 -65 62 -24 35 -30 55 -33 112 -4 57 10 140 23 140 2 0 1 -31 -2 -68z
m1302 -8 c71 -70 73 -214 5 -249 -17 -9 -30 -20 -30 -25 0 -5 -11 -20 -25 -34
-32 -32 -32 -63 1 -157 25 -71 64 -248 64 -290 0 -12 -13 -25 -36 -36 -36 -18
-36 -17 -57 7 -49 60 -97 206 -97 297 0 23 -5 33 -15 33 -24 0 -41 46 -25 65
11 13 11 19 -1 31 -13 13 -41 6 -233 -61 -120 -41 -220 -75 -222 -75 -2 0 -4
15 -5 33 0 35 -24 100 -51 138 l-17 24 0 -31 c-1 -17 6 -48 14 -68 8 -20 13
-36 10 -36 -12 0 -35 71 -35 107 l1 38 226 120 c124 66 255 142 290 168 42 31
71 46 83 42 9 -3 28 -1 41 3 33 13 74 -3 114 -44z m-1371 4 c8 -13 17 -33 21
-46 l6 -22 -38 22 c-41 24 -53 36 -53 56 0 21 49 14 64 -10z m166 -2 c0 -11
-27 -49 -74 -103 -1 -1 0 17 2 40 2 23 11 50 20 60 18 20 52 23 52 3z m1469 0
c36 -19 51 -55 51 -125 0 -44 5 -65 21 -85 12 -15 15 -24 7 -21 -24 10 -48 62
-48 105 0 52 -23 98 -54 106 -57 14 -100 -29 -71 -72 8 -13 22 -24 30 -24 17
0 45 27 45 44 0 20 -27 39 -42 30 -10 -5 -10 -4 -2 5 15 17 53 -2 55 -27 4
-48 -17 -72 -61 -72 -62 0 -86 84 -36 127 31 26 65 29 105 9z m-1696 -28 c33
-45 -4 -113 -51 -92 -14 6 -13 8 8 13 37 10 40 57 6 73 -36 16 -66 -12 -66
-60 0 -28 8 -43 40 -73 43 -41 90 -58 160 -60 34 0 40 -2 25 -9 -61 -26 -162
-3 -218 49 -34 32 -40 45 -44 88 -5 46 -2 54 21 78 35 35 90 32 119 -7z m1892
-23 c29 -28 31 -42 9 -73 -16 -23 -48 -29 -59 -12 -4 6 5 10 19 10 21 0 26 5
26 24 0 28 -24 51 -44 43 -8 -3 -22 -18 -32 -32 -25 -38 -5 -98 52 -152 48
-46 49 -51 5 -28 -69 35 -114 128 -91 185 25 61 75 76 115 35z m-1635 -44 c0
-17 -5 -33 -11 -36 -5 -4 -15 -19 -21 -33 l-11 -27 -9 39 c-6 30 -5 45 7 63
22 33 45 30 45 -6z m-710 -21 c-14 -11 -28 -20 -32 -20 -3 0 -22 -21 -41 -47
-40 -56 -68 -134 -67 -189 0 -22 0 -66 0 -99 l-1 -60 -15 45 c-22 66 -14 194
15 251 31 59 68 98 116 120 51 24 56 23 25 -1z m543 -18 c32 -33 35 -47 8 -32
-11 5 -31 10 -44 10 -27 0 -52 23 -42 40 12 19 51 10 78 -18z m-675 -32 c-31
-28 -67 -67 -79 -87 -30 -49 -36 -25 -8 33 15 31 37 56 67 75 72 45 82 34 20
-21z m307 -7 c22 -157 59 -247 125 -307 44 -40 112 -75 143 -76 35 0 11 -25
-55 -59 -118 -59 -218 -43 -308 50 -38 39 -70 110 -70 156 0 36 25 78 55 91
61 28 118 -54 64 -92 -26 -17 -48 -11 -59 18 l-9 21 0 -22 c-1 -27 24 -53 50
-53 27 0 79 53 79 80 0 29 -26 77 -49 90 -30 16 -83 12 -117 -9 -17 -10 -45
-40 -62 -67 -38 -57 -43 -35 -12 48 27 72 70 121 132 152 75 38 86 35 93 -21z
m1988 -25 c41 -16 33 -25 -32 -31 -32 -4 -80 -14 -106 -22 -26 -9 -50 -14 -53
-11 -10 11 51 66 83 76 32 9 63 6 108 -12z m-1740 -70 c9 -11 17 -30 17 -42 0
-23 -33 -66 -51 -66 -18 0 -49 20 -49 32 0 9 3 9 12 0 32 -32 80 8 58 48 -12
23 -59 27 -78 8 -17 -17 -15 -58 5 -80 10 -12 30 -18 55 -18 40 0 45 3 118 85
28 31 59 45 98 44 24 0 23 -2 -10 -12 -46 -14 -63 -30 -105 -91 -35 -49 -64
-66 -115 -66 -37 0 -98 57 -98 92 1 82 93 125 143 66z m1792 16 c-31 -12 -135
-41 -135 -38 0 15 71 44 105 43 22 0 36 -2 30 -5z m-1460 -34 c15 -6 7 -9 -30
-10 -91 -1 -178 -60 -178 -119 0 -51 41 -79 71 -49 28 28 1 81 -30 61 -7 -3
-8 -1 -4 5 9 15 39 15 54 0 7 -7 12 -27 12 -44 0 -61 -70 -85 -115 -39 -54 53
-20 146 70 186 42 19 116 24 150 9z m-10 -32 c-11 -6 -35 -24 -53 -40 -18 -15
-37 -28 -43 -28 -19 0 -21 31 -4 50 15 16 34 21 105 28 9 1 8 -3 -5 -10z
m1576 -16 c-28 -52 -96 -82 -183 -80 -80 3 -126 -21 -146 -74 -18 -45 -1 -86
43 -107 25 -12 32 -12 54 0 49 27 36 109 -17 109 -35 0 -52 -16 -52 -49 0 -21
-2 -23 -10 -11 -15 24 -12 39 15 65 31 32 66 32 104 -1 67 -56 17 -164 -76
-164 -34 0 -82 30 -99 62 -20 34 -17 98 6 135 35 58 62 68 181 68 106 0 108 0
146 32 45 38 47 38 34 15z m-1471 1 c-8 -4 -27 -19 -42 -35 -33 -35 -58 -37
-58 -3 0 30 24 45 75 44 22 0 33 -3 25 -6z m-1070 -21 c0 -5 -18 -33 -40 -62
-44 -60 -50 -88 -20 -115 23 -20 64 -14 74 11 16 41 -27 81 -51 48 -14 -19
-17 -15 -7 10 9 24 60 20 78 -6 22 -31 20 -52 -7 -84 -50 -58 -137 -18 -137
62 0 29 10 45 51 90 53 55 59 60 59 46z m942 -47 c-4 -45 -23 -72 -42 -60 -18
11 -11 42 16 74 14 17 27 31 27 31 1 0 1 -20 -1 -45z m394 -39 c-33 -51 -181
-144 -279 -175 -50 -17 -75 -61 -52 -93 8 -13 15 -27 15 -33 0 -5 -10 5 -22
24 -12 19 -24 29 -26 23 -2 -6 4 -22 12 -34 9 -12 16 -27 16 -33 0 -5 -10 5
-21 23 -27 41 -36 35 -14 -10 l16 -33 -20 23 c-11 12 -21 28 -24 35 -3 9 -8 8
-19 -4 -13 -13 -14 -19 -2 -40 21 -38 16 -47 -7 -10 -25 41 -37 35 -14 -8 21
-41 10 -40 -15 2 -11 17 -20 25 -20 17 0 -9 7 -26 16 -38 9 -13 14 -25 11 -28
-3 -3 -15 11 -27 31 -29 46 -39 37 -12 -10 12 -19 18 -35 14 -35 -4 0 -16 14
-26 31 -10 17 -20 28 -23 25 -3 -3 2 -17 11 -30 9 -14 16 -31 16 -38 0 -7 -11
5 -25 27 -13 22 -25 33 -25 25 0 -9 7 -26 16 -38 9 -13 14 -26 11 -28 -3 -3
-13 8 -23 25 -10 17 -22 31 -27 31 -5 0 1 -16 13 -35 12 -19 17 -35 11 -35 -6
0 -11 3 -11 8 0 4 -9 18 -20 32 -19 24 -19 24 -13 2 3 -12 9 -25 14 -28 5 -3
9 -13 9 -22 0 -10 -11 0 -25 23 -13 22 -25 34 -25 27 0 -7 7 -24 16 -38 9 -13
14 -27 11 -30 -3 -3 -13 8 -23 25 -10 17 -22 31 -27 31 -5 0 1 -16 13 -35 12
-19 18 -35 13 -35 -4 0 -16 14 -26 31 -10 18 -20 29 -23 26 -3 -3 1 -16 10
-29 25 -36 19 -46 -9 -13 -13 17 -24 24 -25 17 0 -7 -4 -10 -10 -7 -14 9 -12
-1 6 -36 22 -43 11 -47 -14 -5 -15 25 -26 33 -40 29 -33 -8 -55 24 -48 70 5
28 2 47 -9 63 -8 13 -12 24 -7 24 5 0 14 -11 20 -25 6 -14 17 -25 23 -25 7 0
5 10 -6 26 -9 14 -15 28 -12 30 2 3 12 -7 21 -22 23 -35 32 -24 11 15 -20 41
-13 40 14 -1 11 -18 21 -27 21 -20 0 7 -7 24 -16 37 -9 14 -12 25 -7 25 5 0
16 -11 23 -25 7 -14 17 -25 23 -25 5 0 -1 16 -13 35 -12 19 -18 35 -13 35 4 0
16 -14 26 -31 10 -18 20 -29 24 -26 3 4 -2 18 -11 33 -10 14 -16 28 -13 30 2
3 12 -7 21 -22 10 -14 20 -23 23 -21 2 3 -3 17 -13 31 -9 15 -14 29 -12 32 3
3 15 -10 27 -28 14 -22 21 -27 21 -16 0 12 5 15 17 11 16 -6 16 -5 0 17 -26
37 -20 49 8 15 27 -33 34 -23 9 13 -9 13 -14 26 -11 29 3 2 13 -9 22 -27 22
-42 31 -32 10 12 l-16 33 24 -28 c16 -19 29 -26 40 -21 21 7 21 13 2 38 -8 11
-15 25 -15 30 0 6 10 -4 21 -22 27 -41 36 -35 14 10 l-16 33 25 -30 c30 -34
33 -28 10 18 l-15 32 20 -25 c11 -14 21 -28 21 -32 0 -5 5 -8 10 -8 6 0 4 14
-5 31 -9 17 -15 33 -12 35 2 2 10 -7 17 -21 20 -37 33 -30 14 8 l-16 32 24
-26 c27 -32 86 -46 94 -24 8 19 130 118 174 140 19 10 60 26 90 36 46 15 57
15 69 4 12 -12 12 -17 -3 -39z m-1173 -14 c26 -23 22 -52 -7 -52 -29 0 -66 43
-66 77 0 23 0 23 28 6 15 -9 35 -23 45 -31z m1647 -10 c0 -4 -5 -13 -11 -19
-7 -7 -3 -9 15 -6 21 4 26 1 26 -15 0 -13 6 -19 18 -18 24 2 30 -61 7 -71 -21
-7 -36 15 -30 42 3 11 2 14 -1 8 -6 -13 -56 -18 -67 -7 -3 4 -2 15 4 26 8 14
7 24 -2 34 -10 13 -10 17 2 25 17 11 39 12 39 1z m-50 -48 c0 -31 -17 -39 -41
-18 -24 21 -24 40 -2 53 23 12 43 -4 43 -35z m-72 4 c2 -9 -6 -18 -18 -21 -21
-5 -24 1 -14 28 8 19 28 15 32 -7z m31 -37 c25 -16 4 -41 -34 -41 -38 0 -40 2
-25 31 11 20 36 24 59 10z m-1577 -20 c13 -11 46 -58 72 -104 26 -47 55 -88
63 -92 40 -15 80 -15 93 0 18 22 76 19 100 -5 26 -26 25 -45 -1 -71 -26 -26
-63 -21 -128 19 -101 60 -108 46 -21 -44 60 -63 74 -96 48 -122 -19 -19 -66
-14 -89 9 -18 18 -20 29 -15 70 8 56 -14 106 -49 114 -11 3 -54 12 -95 20 -41
9 -85 22 -97 30 -28 19 -58 63 -49 72 4 4 50 -7 103 -25 53 -17 98 -30 99 -29
2 1 -24 38 -56 82 -33 44 -59 83 -60 88 0 15 58 6 82 -12z m1258 -10 c-53 -16
-91 -43 -117 -82 -20 -30 -23 -43 -15 -51 15 -15 16 -38 2 -38 -5 0 -10 10
-10 23 0 18 -2 19 -10 7 -13 -20 -13 1 1 37 22 59 94 113 149 112 l25 -1 -25
-7z m424 -7 c15 -14 15 -35 0 -81 -5 -18 -33 -16 -40 2 -5 11 -10 13 -19 5
-33 -27 -71 38 -40 69 15 15 17 14 31 -3 8 -11 14 -26 14 -33 0 -7 5 -13 10
-13 7 0 7 6 0 19 -24 46 8 71 44 35z m-429 -34 c-30 -32 -55 -39 -55 -16 0 22
29 39 74 45 6 0 -3 -12 -19 -29z m306 -8 c7 -18 5 -22 -10 -22 -20 0 -35 25
-25 41 9 15 26 6 35 -19z m729 -89 c-13 -76 -32 -106 -103 -164 -78 -64 -96
-87 -97 -120 0 -30 17 -49 45 -49 41 0 60 45 30 70 -12 10 -18 10 -30 0 -8 -7
-15 -8 -15 -3 0 13 22 33 37 33 22 0 53 -39 53 -65 0 -34 -42 -75 -76 -75 -30
0 -74 35 -74 59 0 37 -20 -9 -26 -59 -15 -133 68 -250 151 -212 33 15 43 57
19 83 -24 27 -68 22 -72 -9 -2 -12 -8 -20 -13 -17 -28 18 14 75 55 75 33 0 75
-38 81 -75 18 -97 -123 -147 -195 -70 -28 30 -40 32 -40 6 0 -11 -11 -32 -24
-48 -51 -62 -58 -96 -25 -137 23 -30 54 -33 81 -9 35 31 13 78 -34 71 -26 -3
-38 -45 -16 -59 8 -5 8 -9 2 -9 -20 0 -36 29 -30 53 12 49 90 55 115 8 37 -69
-47 -140 -120 -101 -10 6 -26 25 -35 42 -24 46 -12 92 36 144 l42 45 -7 99
c-9 126 -4 152 48 231 l43 65 -38 16 c-75 32 -84 134 -15 163 33 14 74 5 89
-18 11 -18 10 -55 -3 -63 -7 -4 -9 0 -5 13 4 13 -1 26 -13 37 -42 38 -100 -19
-68 -68 62 -94 215 23 234 179 6 58 7 59 14 25 5 -19 4 -59 -1 -87z m-1620 63
c0 -6 -7 -1 -15 10 -8 10 -15 23 -15 28 0 6 7 1 15 -10 8 -10 15 -23 15 -28z
m419 -8 c-24 -20 -64 -24 -75 -7 -10 17 16 28 59 26 38 -2 38 -2 16 -19z m101
-14 c0 -14 -4 -22 -10 -19 -5 3 -10 17 -10 31 0 14 4 22 10 19 6 -3 10 -17 10
-31z m259 22 c29 -34 -48 -110 -192 -190 -38 -21 -93 -46 -124 -55 -73 -22
-98 -54 -97 -123 l1 -50 -19 25 c-39 54 -57 72 -63 65 -4 -4 7 -28 25 -55 l32
-48 -41 42 c-46 47 -51 45 -20 -7 l21 -35 -36 34 c-39 37 -48 32 -16 -9 31
-40 22 -49 -10 -10 -36 42 -40 27 -5 -20 37 -50 30 -51 -15 -1 -45 49 -50 46
-19 -8 l21 -36 -32 33 c-40 43 -47 37 -13 -14 l26 -39 -37 34 c-39 38 -47 35
-18 -7 36 -52 35 -57 -3 -14 -41 47 -59 50 -28 5 35 -50 35 -59 0 -20 -40 43
-57 49 -29 10 36 -52 35 -58 -3 -23 -33 30 -36 32 -25 10 7 -14 20 -34 29 -45
8 -11 -1 -4 -22 14 -40 37 -49 32 -17 -9 31 -39 23 -46 -10 -9 -35 40 -39 31
-9 -20 l21 -36 -35 40 c-46 53 -58 39 -17 -20 18 -26 30 -48 28 -50 -7 -8
-128 107 -128 121 0 19 100 92 240 174 229 134 256 152 340 221 133 110 266
165 299 125z m-885 -22 c10 -25 -1 -29 -14 -5 -6 12 -7 21 -1 21 5 0 12 -7 15
-16z m596 -30 c0 -8 -4 -12 -10 -9 -5 3 -10 10 -10 16 0 5 5 9 10 9 6 0 10 -7
10 -16z m-90 -14 c-14 -25 -44 -42 -64 -34 -32 12 -15 32 38 45 17 4 32 7 34
8 1 1 -2 -8 -8 -19z m-257 -70 c-6 -6 -33 30 -33 44 0 6 9 0 20 -14 10 -14 16
-27 13 -30z m956 -6 c12 -15 21 -33 21 -40 0 -18 9 -18 55 2 50 21 67 5 32
-30 -14 -14 -27 -33 -29 -43 -4 -21 -36 -30 -42 -11 -16 53 -14 51 -40 34 -21
-13 -26 -13 -36 -1 -9 11 -9 19 -2 28 7 8 7 18 2 27 -15 23 -12 60 4 60 8 0
24 -12 35 -26z m-1810 -23 c16 -12 22 -24 17 -36 -5 -14 -3 -16 11 -10 34 14
48 15 62 6 19 -12 4 -72 -20 -78 -23 -6 -24 -16 -4 -33 21 -17 19 -27 -10 -46
-19 -12 -28 -14 -39 -5 -10 8 -17 6 -31 -9 -10 -11 -25 -20 -34 -20 -22 0 -51
51 -45 76 4 15 -2 23 -20 32 -14 6 -26 18 -26 25 0 21 40 52 61 49 12 -2 19 3
19 13 0 20 18 55 28 55 4 0 18 -9 31 -19z m1498 -3 c-9 -13 -37 -56 -62 -97
-26 -41 -54 -86 -63 -100 -36 -55 11 -5 99 104 50 63 94 115 96 115 2 0 -24
-41 -59 -90 -170 -244 -200 -291 -234 -370 -34 -80 -35 -89 -29 -158 6 -67 5
-76 -15 -97 -13 -13 -35 -27 -51 -30 -16 -4 -33 -14 -39 -23 -8 -15 -9 -15
-10 4 0 11 -7 29 -15 40 -17 22 -19 53 -5 74 8 11 9 8 4 -12 -7 -33 24 -68 61
-68 32 0 65 33 65 65 0 29 -32 65 -58 65 -10 0 -29 -8 -42 -17 l-25 -17 19 22
c11 12 24 22 31 22 23 0 56 48 91 135 20 49 31 92 27 96 -11 11 -80 -37 -145
-100 -35 -33 -48 -53 -48 -74 0 -78 -77 -131 -141 -97 -14 8 -19 21 -19 49 0
49 38 85 100 95 85 13 194 117 368 349 57 75 106 137 109 137 3 0 -2 -10 -10
-22z m164 -71 c-76 -170 -195 -554 -203 -656 -4 -44 -28 -55 -28 -12 0 27 -4
31 -27 31 -14 0 -46 -11 -70 -25 -23 -14 -43 -23 -43 -19 0 3 25 34 56 67 59
63 80 102 108 202 44 149 209 506 227 488 6 -6 -1 -34 -20 -76z m-741 23 c25
-8 25 -8 -4 -9 -51 -2 -105 -23 -146 -58 -22 -19 -40 -40 -40 -46 0 -6 14 4
32 22 40 41 75 59 129 67 l44 6 -60 -30 c-33 -16 -84 -48 -113 -71 -30 -24
-56 -40 -59 -38 -11 12 10 67 40 102 46 52 117 74 177 55z m-337 -90 c-6 -6
-33 30 -33 44 0 6 9 0 20 -14 10 -14 16 -27 13 -30z m647 16 c0 -7 10 -12 21
-12 27 1 35 -17 15 -36 -8 -8 -14 -23 -13 -34 1 -12 -4 -19 -15 -19 -10 0 -23
-6 -29 -12 -16 -16 -39 1 -39 27 0 10 -7 23 -15 30 -12 10 -13 16 -4 26 6 8
17 14 24 14 7 0 15 9 18 20 6 22 37 18 37 -4z m-801 -22 c12 -15 21 -33 21
-40 0 -16 -28 -44 -43 -44 -7 0 -4 5 6 11 21 12 22 42 2 59 -26 21 -65 -3 -65
-39 0 -62 101 -106 190 -83 48 12 51 8 8 -14 -43 -22 -119 -21 -165 3 -50 25
-78 79 -63 119 22 58 75 72 109 28z m1316 16 c-3 -5 -8 -49 -10 -97 -2 -49 -6
-101 -10 -118 -5 -16 -4 -27 0 -23 4 4 18 54 30 110 13 57 23 94 24 83 0 -11
-8 -59 -18 -107 -10 -49 -15 -88 -11 -88 4 0 13 21 18 48 l11 47 -5 -52 c-3
-29 -4 -53 -1 -53 2 0 15 52 28 116 13 64 25 111 27 105 2 -6 -6 -56 -18 -111
-24 -112 -22 -160 3 -60 15 59 16 61 11 16 -3 -27 -8 -55 -11 -62 -3 -8 -1
-14 5 -14 5 0 15 33 21 73 12 75 39 181 40 161 1 -7 -8 -56 -19 -109 -23 -110
-25 -153 -5 -85 l14 45 -6 -50 c-10 -85 6 -44 28 71 11 60 25 114 31 119 8 7
9 5 5 -7 -4 -10 -14 -57 -22 -105 -9 -49 -19 -96 -21 -105 -3 -10 -1 -18 4
-18 5 0 12 19 15 43 9 61 39 189 43 184 3 -2 -5 -51 -16 -108 -23 -119 -23
-122 -11 -115 4 3 11 25 15 48 23 145 29 173 37 148 6 -23 7 -23 8 -3 1 20 21
45 21 26 -1 -37 -43 -271 -52 -291 -8 -17 -26 -30 -49 -37 -70 -20 -92 -57
-63 -110 15 -29 16 -39 5 -74 -14 -48 -44 -69 -68 -49 -9 7 -25 12 -35 10 -30
-5 -48 17 -48 60 0 31 7 46 30 70 44 43 41 81 -10 127 -29 27 -40 44 -40 66
-1 41 62 285 72 285 5 0 6 -4 3 -10z m14 -42 c-14 -62 -20 -70 -13 -18 4 25 8
48 11 53 10 16 10 5 2 -35z m37 -39 c-8 -35 -14 -56 -15 -47 -1 23 20 120 25
115 2 -2 -2 -33 -10 -68z m56 36 c-2 -14 -6 -25 -8 -25 -2 0 -4 11 -4 25 0 14
4 25 9 25 4 0 6 -11 3 -25z m45 -7 c-3 -8 -6 -5 -6 6 -1 11 2 17 5 13 3 -3 4
-12 1 -19z m-10 -55 c-3 -10 -5 -4 -5 12 0 17 2 24 5 18 2 -7 2 -21 0 -30z
m-1325 -21 c-28 -4 -62 15 -62 34 0 12 8 11 41 -8 34 -19 38 -24 21 -26z
m1275 11 c-3 -10 -5 -4 -5 12 0 17 2 24 5 18 2 -7 2 -21 0 -30z m-1342 -3 c11
-13 14 -20 6 -20 -21 0 -52 21 -46 31 9 14 20 11 40 -11z m1382 -42 c-3 -7 -5
-2 -5 12 0 14 2 19 5 13 2 -7 2 -19 0 -25z m-2197 12 c8 -5 11 -10 5 -10 -5 0
-17 5 -25 10 -8 5 -10 10 -5 10 6 0 17 -5 25 -10z m440 -39 c80 -11 188 -22
240 -26 153 -9 209 -19 225 -41 21 -27 18 -61 -6 -85 -19 -19 -28 -20 -127
-14 -59 3 -200 8 -314 11 -325 8 -256 24 98 23 197 -1 310 3 316 9 23 23 -1
40 -59 46 -32 3 -80 11 -108 17 -27 6 -139 22 -247 37 -109 14 -198 30 -198
34 0 11 17 10 180 -11z m1263 -111 c19 0 22 -6 23 -40 1 -31 -2 -40 -15 -40
-9 0 -23 -6 -30 -12 -11 -11 -14 -10 -18 0 -3 7 -14 21 -24 31 -17 16 -18 19
-4 31 8 7 15 19 15 27 0 10 6 13 16 9 9 -3 25 -6 37 -6z m242 -90 c-3 -5 1
-10 9 -10 18 0 19 -2 10 -24 -3 -9 -14 -16 -24 -16 -14 0 -18 7 -18 30 1 19 6
30 15 30 8 0 11 -4 8 -10z m-951 -26 c3 -7 12 -11 21 -8 19 8 31 -22 16 -40
-6 -7 -9 -21 -5 -30 4 -10 0 -18 -12 -22 -11 -3 -27 -10 -37 -15 -22 -12 -47
5 -47 32 0 10 -4 21 -10 24 -17 10 -11 37 9 42 11 3 21 13 24 24 6 21 32 17
41 -7z m916 5 c0 -24 -23 -21 -28 4 -2 10 3 17 12 17 10 0 16 -9 16 -21z m-40
0 c0 -7 8 -18 18 -25 16 -12 16 -13 0 -19 -10 -4 -18 -12 -18 -17 0 -6 6 -5
15 2 16 13 35 6 35 -15 0 -17 -20 -31 -29 -19 -3 5 -13 9 -21 9 -9 0 -15 11
-17 29 -1 16 -4 35 -7 42 -2 6 -2 15 1 18 10 10 23 7 23 -5z m-1340 -24 c7 -8
21 -15 31 -15 23 0 26 -38 4 -46 -11 -5 -13 -10 -5 -19 11 -13 -11 -41 -23
-28 -4 3 -13 0 -22 -7 -18 -15 -45 2 -45 30 0 10 -7 21 -16 24 -15 6 -15 8 1
26 10 11 21 17 25 15 4 -3 10 4 13 15 6 24 20 26 37 5z m1460 -4 c0 -22 -16
-36 -24 -22 -8 12 3 41 15 41 5 0 9 -9 9 -19z m-1775 -1 c3 -5 16 -10 28 -10
18 0 22 -6 23 -35 0 -25 -4 -35 -14 -35 -9 0 -24 -7 -34 -17 -11 -9 -18 -11
-18 -5 0 7 -10 22 -21 33 -20 20 -20 23 -5 31 9 5 16 18 16 28 0 21 15 27 25
10z m518 -34 c30 -13 98 -49 152 -81 l97 -58 32 17 c17 9 55 34 85 56 41 31
64 40 93 40 62 0 98 -24 98 -66 0 -40 -31 -55 -121 -58 -84 -3 -139 -17 -139
-35 0 -20 55 -73 108 -104 64 -37 83 -70 64 -112 -9 -20 -19 -25 -48 -25 -55
0 -91 27 -124 94 -17 33 -30 65 -30 71 0 7 -9 24 -21 39 l-20 26 -157 0 c-167
0 -216 10 -144 29 22 6 73 15 112 20 39 5 73 11 75 13 2 2 -26 27 -63 55 -66
51 -122 103 -109 103 4 0 31 -11 60 -24z m1222 -10 c0 -16 -6 -31 -14 -34 -10
-3 -12 1 -8 17 3 11 1 24 -4 27 -16 9 -10 26 9 22 11 -2 17 -13 17 -32z
m-1742 -99 c26 -21 26 -24 11 -46 -11 -15 -23 -21 -35 -18 -12 3 -19 0 -19
-10 0 -19 -24 -11 -28 9 -3 16 41 33 58 23 6 -4 10 -1 10 4 0 6 -9 12 -20 12
-33 2 -38 4 -46 12 -4 4 -12 7 -18 7 -5 0 -3 -6 6 -12 13 -11 13 -17 2 -38 -8
-14 -14 -23 -15 -20 -3 17 -9 51 -11 62 -2 6 13 18 32 24 46 17 43 17 73 -9z
m223 -13 c53 -31 65 -44 94 -102 l33 -67 16 37 c9 21 19 38 22 38 3 0 41 -16
85 -36 l78 -36 -24 -21 c-14 -11 -50 -32 -80 -46 -47 -22 -69 -26 -145 -26
-108 0 -170 20 -214 70 -38 43 -48 94 -29 143 13 34 67 82 92 82 6 0 39 -16
72 -36z m1810 11 c4 -9 11 -15 18 -14 38 5 49 -17 21 -41 -12 -10 -13 -16 -4
-26 9 -11 7 -15 -7 -20 -11 -3 -29 -11 -42 -17 -25 -12 -42 1 -42 34 0 9 -7
20 -15 23 -13 4 -14 10 -5 26 6 11 17 20 25 20 8 0 15 7 15 15 0 20 29 19 36
0z m-846 -55 c15 -21 17 -30 8 -30 -21 0 -58 29 -58 46 0 24 28 16 50 -16z
m454 -26 c4 -11 -6 -28 -29 -50 -44 -42 -44 -48 1 -29 47 19 70 19 78 -1 12
-31 -42 -62 -59 -34 -3 6 -17 10 -30 10 -18 0 -35 -15 -65 -55 -25 -34 -48
-55 -60 -55 -26 0 -26 0 10 45 17 21 29 39 27 41 -1 2 -22 -2 -46 -7 -24 -5
-46 -7 -49 -4 -14 13 28 36 77 42 59 7 92 32 84 64 -10 38 47 69 61 33z m579
-26 c-31 -54 -88 -86 -183 -104 -96 -18 -120 -28 -120 -49 0 -19 24 -19 40 0
15 18 30 20 30 3 0 -18 -42 -58 -61 -58 -23 0 -49 26 -49 50 0 39 34 60 154
96 114 34 171 61 189 92 18 29 18 1 0 -30z m-2228 22 c-3 -5 -10 -10 -16 -10
-5 0 -9 5 -9 10 0 6 7 10 16 10 8 0 12 -4 9 -10z m1155 -10 l25 -20 -25 0
c-25 0 -50 16 -50 32 0 14 24 8 50 -12z m746 -16 c8 -20 13 -38 10 -41 -10
-10 -56 46 -50 61 10 26 24 18 40 -20z m-786 -9 c0 -9 -51 -25 -61 -19 -17 10
1 24 32 24 16 0 29 -2 29 -5z m262 -12 c32 -29 23 -56 -32 -88 -56 -33 -77
-72 -55 -102 34 -43 0 -64 -52 -32 -19 12 -37 19 -40 16 -3 -4 12 -16 32 -29
21 -12 33 -24 27 -26 -7 -2 -10 -8 -6 -13 3 -5 0 -9 -6 -9 -6 0 -8 -5 -4 -12
4 -7 -12 0 -37 14 -36 21 -46 23 -56 13 -9 -10 -4 -18 28 -39 21 -15 39 -29
39 -32 0 -2 -17 7 -37 21 -39 26 -59 32 -48 15 3 -5 1 -10 -5 -10 -6 0 -8 -4
-5 -10 3 -5 11 -10 16 -10 6 0 7 5 4 10 -11 18 10 10 40 -16 21 -18 23 -21 5
-10 -38 25 -48 19 -15 -10 30 -25 30 -25 -13 2 -23 15 -45 25 -48 22 -3 -3 11
-16 30 -28 20 -12 36 -24 36 -27 0 -2 -16 5 -36 17 -19 12 -38 20 -41 17 -3
-4 11 -16 31 -28 20 -11 36 -23 36 -26 0 -3 -16 4 -36 16 -43 25 -51 26 -33 4
10 -11 10 -14 2 -9 -7 4 -13 2 -13 -3 0 -6 3 -11 8 -11 4 0 18 -10 32 -21 l25
-20 -35 16 -35 16 35 -30 c40 -35 27 -40 -29 -11 -43 22 -51 35 -51 89 0 48
40 112 134 210 40 42 81 90 91 106 47 75 80 92 117 58z m-250 -55 c-31 -51
-38 -58 -40 -39 -7 44 29 96 70 100 3 1 -10 -27 -30 -61z m739 36 l24 -27 -30
7 c-32 8 -55 23 -55 37 0 19 38 8 61 -17z m-1865 1 c4 -8 17 -15 30 -15 17 0
24 -6 24 -20 0 -11 -7 -23 -15 -26 -11 -4 -12 -11 -5 -24 11 -21 4 -30 -25
-30 -11 0 -26 -5 -33 -12 -15 -15 -45 9 -39 32 2 10 -4 22 -15 29 -19 12 -19
13 -3 31 10 11 21 17 25 15 4 -3 10 4 13 15 6 23 35 27 43 5z m1809 -16 c5 -5
-6 -9 -28 -9 -35 0 -45 8 -30 23 8 8 43 -1 58 -14z m-753 -21 c-12 -12 -25
-18 -29 -14 -4 4 3 16 16 27 31 25 41 15 13 -13z m781 -19 c-17 -11 -39 -31
-47 -44 -21 -31 -40 -33 -31 -2 12 38 46 67 79 67 l31 0 -32 -21z m-86 -9
c-30 -24 -37 -25 -37 -6 0 16 15 24 44 25 16 1 15 -2 -7 -19z m-1010 -20 c56
-34 57 -118 2 -164 -59 -50 -109 -33 -209 68 -79 81 -58 91 28 13 75 -69 113
-85 147 -63 36 24 49 61 33 94 -23 48 -98 39 -98 -12 0 -47 48 -62 74 -24 10
14 16 17 16 9 0 -22 -31 -51 -53 -51 -30 0 -67 39 -67 70 0 29 15 52 45 68 29
16 46 14 82 -8z m406 -2 c7 -25 0 -41 -14 -33 -12 8 -12 55 0 55 5 0 11 -10
14 -22z m-957 -38 c55 -21 112 -93 128 -165 6 -26 3 -23 -19 15 -37 62 -63 90
-110 111 -53 25 -78 24 -111 -4 -21 -19 -26 -29 -21 -49 7 -28 30 -41 57 -33
25 8 32 32 14 50 -9 8 -12 15 -7 15 15 0 33 -23 33 -41 0 -45 -75 -66 -112
-32 -29 26 -24 84 10 115 39 37 72 41 138 18z m1524 -37 c29 -118 147 -184
244 -138 36 17 66 61 66 97 0 18 2 20 10 8 16 -24 11 -73 -10 -107 -34 -56
-119 -85 -186 -63 -45 15 -108 70 -124 110 -15 37 -23 37 -82 0 -63 -40 -66
-74 -8 -113 l24 -17 -23 0 c-13 0 -38 15 -57 34 -65 65 -40 146 63 203 32 18
61 33 64 33 4 0 12 -21 19 -47z m-1202 -35 c75 -55 121 -94 122 -101 0 -15
-45 5 -87 39 -59 48 -87 57 -128 40 -22 -9 -37 -24 -40 -39 -14 -53 39 -95 76
-61 35 32 13 83 -31 71 -23 -6 -27 8 -5 17 24 9 65 -11 74 -36 5 -13 4 -35 -1
-51 -29 -81 -148 -50 -148 38 0 46 13 71 48 89 39 22 85 19 120 -6z m950 -14
c26 -18 27 -64 2 -72 -13 -5 -13 -3 -1 11 17 22 -1 47 -34 47 -23 0 -35 -17
-35 -51 0 -24 55 -59 95 -59 23 0 27 -3 15 -10 -8 -5 -32 -10 -53 -10 -29 0
-46 7 -68 29 -36 36 -37 73 -4 106 28 29 51 31 83 9z m-1217 -24 l24 -21 -35
7 c-43 8 -52 13 -45 25 10 15 31 10 56 -11z m717 -23 c22 -62 16 -105 -23
-144 -44 -44 -92 -44 -113 -1 -11 24 -10 33 12 77 24 46 78 101 101 101 6 0
16 -15 23 -33z m237 -18 c20 -12 34 -24 31 -26 -2 -3 -22 7 -43 21 -46 31 -38
34 12 5z m-910 -20 l20 -21 -35 7 c-44 9 -70 23 -70 37 0 17 62 0 85 -23z
m1042 9 c13 -12 23 -27 23 -34 0 -7 10 -20 22 -28 27 -19 22 -20 -23 -5 -46
16 -69 37 -69 66 0 29 17 29 47 1z m359 -74 c-30 -21 -42 -17 -15 5 13 11 26
17 29 14 3 -2 -4 -11 -14 -19z m-376 -4 c12 -8 9 -10 -12 -10 -16 0 -28 5 -28
10 0 13 20 13 40 0z m210 -15 c0 -2 -22 -16 -50 -30 -54 -27 -73 -54 -72 -98
1 -54 47 -81 93 -57 39 21 16 90 -30 90 -18 0 -42 -32 -36 -49 5 -13 4 -14 -7
-3 -10 10 -10 18 2 40 26 46 89 42 115 -8 13 -26 14 -34 1 -64 -25 -61 -105
-68 -151 -14 -66 78 2 187 123 197 6 1 12 -1 12 -4z m-370 -31 c0 -2 -9 0 -20
6 -11 6 -20 13 -20 16 0 2 9 0 20 -6 11 -6 20 -13 20 -16z m170 -9 c-18 -13
-37 -22 -42 -19 -12 8 0 24 26 34 41 17 49 10 16 -15z m333 -28 c38 -65 42
-88 17 -120 -27 -34 -83 -38 -100 -8 -14 26 -13 64 2 79 17 17 55 15 62 -3 4
-12 2 -13 -13 -6 -12 7 -22 6 -29 -1 -34 -34 8 -79 46 -52 25 17 28 44 8 82
-17 33 -29 72 -23 72 3 0 16 -19 30 -43z m-113 18 c0 -8 -4 -15 -10 -15 -5 0
-10 7 -10 15 0 8 5 15 10 15 6 0 10 -7 10 -15z m-199 -22 c-5 -10 -13 -31 -17
-47 -11 -36 -41 -57 -53 -37 -13 21 -1 49 33 76 37 29 50 32 37 8z"/>
<path d="M3210 3006 c0 -9 5 -16 10 -16 6 0 10 4 10 9 0 6 -4 13 -10 16 -5 3
-10 -1 -10 -9z"/>
<path d="M3026 2935 c4 -8 10 -15 16 -15 5 0 6 -4 3 -10 -7 -11 8 -14 18 -4 4
4 -3 15 -15 25 -26 23 -29 23 -22 4z"/>
<path d="M3055 2890 c-3 -5 1 -10 9 -10 8 0 18 5 21 10 3 6 -1 10 -9 10 -8 0
-18 -4 -21 -10z"/>
<path d="M3070 2870 c-13 -8 -13 -10 2 -10 9 0 20 5 23 10 8 13 -5 13 -25 0z"/>
<path d="M3080 2850 c-13 -8 -13 -10 2 -10 9 0 20 5 23 10 8 13 -5 13 -25 0z"/>
<path d="M3085 2820 c-8 -13 5 -13 25 0 13 8 13 10 -2 10 -9 0 -20 -4 -23 -10z"/>
<path d="M3095 2800 c-3 -5 -2 -10 4 -10 5 0 13 5 16 10 3 6 2 10 -4 10 -5 0
-13 -4 -16 -10z"/>
<path d="M3100 2780 c-8 -5 -12 -11 -9 -14 3 -3 14 1 25 9 21 16 8 20 -16 5z"/>
<path d="M3105 2730 c-3 -5 1 -10 9 -10 8 0 18 5 21 10 3 6 -1 10 -9 10 -8 0
-18 -4 -21 -10z"/>
<path d="M3110 2699 c0 -5 5 -7 10 -4 6 3 10 8 10 11 0 2 -4 4 -10 4 -5 0 -10
-5 -10 -11z"/>
<path d="M3290 2704 c-17 -10 -18 -13 -5 -8 11 3 47 10 80 14 l60 7 -55 1
c-34 1 -65 -5 -80 -14z"/>
<path d="M1789 2199 c-84 -49 -161 -97 -169 -106 -8 -8 14 2 50 24 36 22 113
68 173 102 93 55 117 71 104 71 -2 0 -73 -41 -158 -91z"/>
<path d="M1421 2146 c-17 -20 12 -46 50 -46 21 0 29 5 29 18 0 38 -55 58 -79
28z"/>
<path d="M1330 2024 c-10 -11 -10 -20 -2 -40 23 -48 71 -40 58 10 -8 34 -40
51 -56 30z"/>
<path d="M2402 2170 c-34 -22 -62 -42 -62 -44 0 -3 29 13 65 35 57 37 73 49
62 49 -2 0 -32 -18 -65 -40z"/>
<path d="M1105 2011 c-8 -15 3 -31 21 -31 9 0 14 7 12 17 -4 20 -24 28 -33 14z"/>
<path d="M2123 1620 c-43 -18 -55 -68 -23 -100 27 -27 62 -25 88 3 27 29 28
61 2 87 -22 22 -33 23 -67 10z"/>
<path d="M2731 1914 c-12 -31 -20 -59 -18 -61 2 -2 14 22 26 53 12 31 20 59
18 61 -2 2 -14 -22 -26 -53z"/>
<path d="M2676 1770 c-14 -39 -26 -77 -25 -83 0 -7 13 24 30 67 16 43 28 81
26 83 -3 2 -16 -28 -31 -67z"/>
<path d="M2636 1655 c-9 -26 -7 -32 5 -12 6 10 9 21 6 23 -2 3 -7 -2 -11 -11z"/>
<path d="M2345 1930 c3 -5 8 -10 11 -10 2 0 4 5 4 10 0 6 -5 10 -11 10 -5 0
-7 -4 -4 -10z"/>
<path d="M3102 1860 c0 -14 2 -19 5 -12 2 6 2 18 0 25 -3 6 -5 1 -5 -13z"/>
<path d="M2910 1505 c0 -8 5 -15 10 -15 6 0 10 7 10 15 0 8 -4 15 -10 15 -5 0
-10 -7 -10 -15z"/>
<path d="M2473 1651 c-10 -15 -9 -22 5 -34 12 -11 22 -13 32 -7 16 10 23 50 9
50 -4 0 -13 2 -21 5 -7 3 -18 -3 -25 -14z"/>
<path d="M1320 1490 c0 -5 5 -10 10 -10 6 0 10 5 10 10 0 6 -4 10 -10 10 -5 0
-10 -4 -10 -10z"/>
<path d="M1011 1507 c-10 -15 -9 -21 6 -33 10 -7 20 -13 23 -14 13 0 26 17 27
36 2 30 -40 38 -56 11z"/>
<path d="M1982 1425 c-18 -8 -42 -21 -52 -28 -18 -13 -14 -14 44 -15 71 -1
100 15 76 43 -15 18 -26 18 -68 0z"/>
<path d="M1785 1340 c-4 -6 -3 -16 3 -22 6 -6 12 -6 17 2 4 6 3 16 -3 22 -6 6
-12 6 -17 -2z"/>
<path d="M1875 1200 c38 -74 105 -119 105 -71 0 12 -21 34 -60 59 -59 40 -59
40 -45 12z"/>
<path d="M3040 1340 c0 -5 5 -10 10 -10 6 0 10 5 10 10 0 6 -4 10 -10 10 -5 0
-10 -4 -10 -10z"/>
<path d="M2631 1306 c-8 -10 -9 -16 -1 -21 13 -8 30 3 30 21 0 18 -14 18 -29
0z"/>
<path d="M2674 1229 c-8 -14 11 -33 25 -25 16 10 13 36 -3 36 -8 0 -18 -5 -22
-11z"/>
<path d="M2269 1050 c13 -11 28 -20 33 -20 6 0 -1 9 -15 20 -33 26 -49 26 -18
0z"/>
<path d="M2229 1020 c13 -11 28 -20 35 -20 6 0 0 9 -14 20 -33 26 -52 25 -21
0z"/>
<path d="M2219 1000 c13 -11 28 -20 35 -20 6 0 0 9 -14 20 -33 26 -52 25 -21
0z"/>
<path d="M2130 1220 c-6 -11 -8 -20 -6 -20 3 0 10 9 16 20 6 11 8 20 6 20 -3
0 -10 -9 -16 -20z"/>
<path d="M1005 1180 c3 -5 8 -10 11 -10 2 0 4 5 4 10 0 6 -5 10 -11 10 -5 0
-7 -4 -4 -10z"/>
<path d="M3352 3619 c-6 -25 -20 -53 -31 -63 -19 -17 -19 -18 5 -53 13 -20 24
-46 24 -59 0 -34 17 -30 25 5 3 16 17 42 31 56 l25 27 -21 23 c-12 13 -27 42
-34 66 l-13 42 -11 -44z"/>
<path d="M768 3569 c-16 -38 -16 -42 0 -69 l18 -28 22 34 c13 20 18 36 12 39
-6 4 -16 20 -23 36 l-12 29 -17 -41z"/>
<path d="M1647 3525 c-15 -31 -15 -36 3 -72 11 -21 19 -31 20 -22 0 9 8 27 18
40 18 23 18 25 -3 56 l-22 32 -16 -34z"/>
<path d="M3625 3526 c-20 -15 -17 -44 7 -59 12 -8 21 -7 32 2 36 30 -1 85 -39
57z"/>
<path d="M3059 3391 c-39 -40 -39 -80 2 -123 28 -30 30 -30 15 -6 -20 35 -20
67 0 96 20 29 54 25 71 -8 l13 -25 0 27 c0 17 -9 34 -26 47 -35 27 -40 27 -75
-8z"/>
<path d="M3800 3400 c0 -31 -25 -84 -49 -107 l-22 -20 29 -31 c16 -17 35 -52
42 -78 l13 -47 14 54 c8 30 25 66 39 80 25 27 26 27 6 38 -21 11 -52 78 -52
111 0 11 -4 20 -10 20 -5 0 -10 -9 -10 -20z"/>
<path d="M3450 3365 c-13 -27 -13 -33 0 -60 l15 -31 21 31 20 30 -21 30 -20
31 -15 -31z"/>
<path d="M1034 3294 c-4 -10 -13 -26 -21 -35 -11 -14 -11 -18 2 -29 8 -7 15
-19 15 -26 0 -22 14 -16 30 14 14 24 14 30 -2 61 -15 30 -18 32 -24 15z"/>
<path d="M1518 3239 c-21 -12 -24 -49 -6 -67 18 -18 56 -14 68 7 14 27 13 37
-6 55 -18 18 -32 20 -56 5z"/>
<path d="M3980 3236 c0 -7 -9 -25 -20 -39 -18 -23 -18 -26 -4 -38 9 -7 20 -22
24 -34 8 -19 9 -19 18 7 6 14 15 29 20 32 6 3 1 23 -10 46 -21 42 -28 49 -28
26z"/>
<path d="M3100 3235 c0 -7 81 -47 86 -43 2 3 -17 14 -41 26 -25 12 -45 20 -45
17z"/>
<path d="M671 3126 c-5 -21 -20 -49 -32 -62 l-22 -24 21 -23 c12 -13 25 -37
28 -55 8 -39 20 -41 29 -4 3 15 18 39 33 54 l26 28 -23 24 c-13 13 -29 41 -36
62 l-13 38 -11 -38z"/>
<path d="M1273 3050 c-9 -24 -9 -38 2 -62 l13 -32 15 31 c13 25 14 36 4 62
-14 39 -20 39 -34 1z"/>
<path d="M2089 2981 c-52 -52 -36 -142 35 -196 71 -54 212 -57 290 -4 28 19
28 20 6 14 -14 -3 -58 -9 -98 -12 -84 -7 -143 11 -184 55 -61 63 -20 160 52
122 16 -9 20 -19 18 -43 -3 -27 -7 -32 -30 -32 -21 1 -24 -2 -16 -12 28 -34
78 2 78 56 0 76 -94 109 -151 52z"/>
<path d="M1018 2979 c-21 -12 -24 -49 -6 -67 21 -21 57 -14 70 14 11 23 10 29
-11 45 -27 22 -30 22 -53 8z"/>
<path d="M3864 2946 c-20 -32 -20 -33 -2 -55 10 -13 18 -29 18 -37 0 -8 5 -14
10 -14 6 0 10 8 10 17 0 9 7 24 15 33 14 16 14 21 -6 54 -11 20 -22 36 -22 36
-1 -1 -11 -16 -23 -34z"/>
<path d="M738 2713 c-15 -33 -15 -37 2 -75 17 -38 18 -39 25 -17 4 13 14 32
23 42 14 15 13 19 -1 35 -10 10 -17 24 -17 30 0 25 -16 17 -32 -15z"/>
<path d="M611 2523 c-7 -28 -23 -61 -36 -73 -23 -21 -23 -22 -5 -40 11 -11 24
-38 31 -62 15 -51 29 -71 29 -41 0 12 15 44 34 71 32 49 33 51 15 69 -10 10
-27 43 -37 73 l-19 55 -12 -52z"/>
<path d="M755 2230 c-4 -14 -14 -32 -22 -42 -10 -11 -11 -18 -3 -23 6 -4 16
-19 21 -33 l10 -25 17 34 c11 21 15 39 9 46 -4 6 -12 24 -16 40 l-8 28 -8 -25z"/>
<path d="M3997 1513 c-9 -33 -25 -67 -37 -78 l-20 -18 20 -22 c11 -12 26 -45
32 -73 7 -29 15 -52 18 -52 3 0 11 21 18 46 7 26 25 58 41 73 l28 26 -23 18
c-14 10 -31 42 -42 78 l-18 60 -17 -58z"/>
<path d="M3819 1353 c-15 -31 -15 -36 0 -66 l17 -33 21 33 22 33 -22 33 -22
33 -16 -33z"/>
<path d="M4083 1183 c-10 -21 -10 -33 -1 -55 16 -35 19 -35 38 0 14 24 14 30
0 54 -19 34 -22 35 -37 1z"/>
<path d="M3915 1095 l-20 -41 20 -36 21 -36 23 40 c15 26 19 43 12 47 -5 4
-16 20 -23 37 l-13 30 -20 -41z"/>
<path d="M810 1041 c0 -10 -9 -30 -20 -44 -17 -22 -18 -26 -5 -37 8 -7 19 -27
24 -44 l8 -31 12 30 c7 16 19 37 27 46 13 14 13 18 0 28 -8 7 -18 26 -21 42
-7 32 -25 40 -25 10z"/>
<path d="M3624 994 c32 -81 24 -184 -26 -342 -33 -103 -30 -184 10 -265 49
-99 135 -157 231 -157 116 1 218 122 190 225 -13 46 -73 111 -112 120 -85 22
-187 -57 -187 -142 0 -71 81 -135 143 -113 17 5 40 18 51 28 20 17 20 17 5 -7
-19 -29 -75 -61 -108 -61 -43 0 -107 46 -130 93 -59 121 21 260 167 292 110
23 233 -57 278 -182 20 -56 17 -22 -7 80 -28 119 -42 150 -91 203 -71 78 -182
148 -333 211 -33 13 -66 27 -74 31 -11 4 -13 1 -7 -14z"/>
<path d="M4160 967 c0 -13 -9 -36 -20 -50 -17 -21 -18 -26 -5 -37 8 -7 18 -28
21 -48 l7 -37 18 41 c9 23 22 45 28 49 8 4 5 15 -9 32 -11 14 -20 34 -20 44 0
10 -4 21 -10 24 -6 3 -10 -4 -10 -18z"/>
<path d="M710 803 c0 -11 -5 -24 -11 -30 -9 -9 -8 -19 3 -42 l14 -31 22 29
c18 25 19 31 7 41 -8 7 -15 18 -15 26 0 7 -4 16 -10 19 -5 3 -10 -2 -10 -12z"/>
<path d="M993 799 c-58 -17 -82 -87 -47 -137 19 -27 64 -29 87 -4 19 21 23 42
5 24 -18 -18 -56 -14 -68 7 -15 30 -12 47 14 78 22 25 33 29 103 34 l78 6 -70
0 c-38 1 -84 -3 -102 -8z"/>
<path d="M1307 605 c-8 -56 -40 -121 -68 -135 -20 -11 -19 -12 10 -45 27 -31
60 -114 61 -154 1 -9 11 13 22 49 15 43 34 76 59 100 l37 36 -28 16 c-28 16
-70 105 -70 148 0 39 -18 28 -23 -15z"/>
<path d="M1673 563 c-10 -21 -10 -33 -1 -55 7 -15 15 -28 18 -28 12 0 36 56
28 65 -5 6 -14 18 -21 27 -11 16 -13 16 -24 -9z"/>
<path d="M2150 553 c-59 -21 -144 -106 -160 -161 -17 -53 -6 -104 29 -141 34
-37 79 -41 127 -12 30 18 64 74 64 105 0 24 -18 19 -26 -6 -15 -50 -53 -69
-99 -52 -27 11 -48 62 -40 101 14 76 144 162 248 164 33 0 38 2 22 9 -32 14
-116 10 -165 -7z"/>
<path d="M1828 514 c-5 -4 -8 -17 -8 -29 0 -12 -11 -38 -24 -58 -17 -24 -21
-38 -14 -45 6 -6 18 -34 28 -62 l18 -52 12 38 c7 22 24 51 38 67 14 15 21 27
14 27 -17 0 -45 47 -51 87 -3 19 -9 31 -13 27z"/>
<path d="M4147 400 c-28 -128 -56 -177 -132 -228 -42 -29 -45 -33 -20 -27 17
4 63 21 103 37 l72 30 -1 51 c-1 29 -4 79 -8 112 -6 57 -7 58 -14 25z"/>
<path d="M1076 333 c-4 -18 -16 -43 -27 -57 -19 -25 -19 -25 1 -58 11 -18 20
-41 20 -50 0 -29 15 -20 28 16 7 19 19 39 27 46 12 10 11 16 -6 40 -12 15 -24
43 -28 61 l-8 34 -7 -32z"/>
<path d="M1546 284 c-21 -20 -20 -27 3 -48 22 -20 48 -12 57 17 4 14 1 25 -12
34 -23 17 -29 16 -48 -3z"/>
</g>
</svg>
